<svg width="93" height="93" viewBox="0 0 93 93" fill="none" xmlns="http://www.w3.org/2000/svg">
<path d="M46.5233 55.9046C45.7967 55.9046 45.2155 55.3233 45.2155 54.5968V49.0575L38.1533 46.9446L33.1836 42.7015L45.2155 46.3052V45.5031C45.2155 42.5969 46.0292 39.7197 47.6567 37.2784C48.1421 36.5431 48.546 35.7643 48.8628 34.9534L42.4226 33.0266L34.9244 28.0249L49.5545 32.4105C49.6649 31.7362 49.7202 31.0532 49.7202 30.3615V24.2584H52.3358V30.3615C52.3358 30.6987 52.3242 31.0329 52.3009 31.3671L63.5801 27.9959L54.8555 33.3579L51.8301 34.2588C51.4161 35.8185 50.7516 37.3006 49.8626 38.6473C48.5257 40.6816 47.8282 43.0648 47.8282 45.506V48.389L59.831 44.7911L52.4608 49.755L47.8311 51.1412V54.5997C47.8311 55.3262 47.2498 55.9046 46.5233 55.9046Z" fill="#44911B"/>
<path d="M50.5978 6.02176C45.2736 12.2121 45.1167 22.4188 50.2549 28.8329C50.4932 29.1177 50.8856 29.1497 51.121 28.862C56.4452 22.6717 56.6022 12.4678 51.4639 6.05373C51.2256 5.73695 50.8333 5.73404 50.5978 6.02176ZM30.9748 33.4974L20.803 30.4459C19.0883 36.1712 22.3433 42.1871 28.0395 43.9309L38.2114 46.9824C39.9552 41.2571 36.7002 35.2121 30.9748 33.4974ZM69.8605 33.2359L59.6886 36.2874C53.9633 38.0312 50.7083 44.0471 52.452 49.7724L62.6239 46.7209C68.3202 44.9771 71.5752 38.9612 69.8605 33.2359ZM35.247 19.5765L25.0752 16.5249C23.3895 22.2503 26.6155 28.2662 32.3408 30.0099L42.5127 33.0615C43.3349 30.3098 43.0316 27.3443 41.6694 24.816C40.3072 22.2877 37.9974 20.4033 35.247 19.5765ZM72.2436 16.8446L62.0717 19.8962C60.7084 20.3023 59.4389 20.974 58.3364 21.8727C57.2338 22.7714 56.3198 23.8794 55.6472 25.1328C54.9746 26.3862 54.5566 27.7602 54.4172 29.1759C54.2778 30.5915 54.4199 32.0207 54.8352 33.3812L65.007 30.3296C70.7033 28.5859 73.9583 22.5699 72.2436 16.8446Z" fill="#86D72F"/>
<path d="M63.9375 58.125C58.9092 54.3477 52.789 52.3077 46.5 52.3125C39.958 52.3125 33.9014 54.4922 29.0625 58.125L46.5 63.8474L63.9375 58.125Z" fill="#7D4533"/>
<path d="M26.1766 69.7384L28.4435 83.3687C28.8213 85.5774 30.7104 87.1759 32.9191 87.1759H60.0926C62.3013 87.1759 64.2194 85.5774 64.5682 83.3687L66.8641 69.7384L46.5204 65.1174L26.1766 69.7384Z" fill="#F3AD61"/>
<path d="M68.2969 69.75H24.7031C23.8894 69.75 23.25 69.1106 23.25 68.2969V59.5781C23.25 58.7644 23.8894 58.125 24.7031 58.125H68.2969C69.1106 58.125 69.75 58.7644 69.75 59.5781V68.2969C69.75 69.1106 69.1106 69.75 68.2969 69.75Z" fill="#F3C07B"/>
</svg>
