<svg width="2086" height="2136" viewBox="0 0 2086 2136" fill="none" xmlns="http://www.w3.org/2000/svg">
<path d="M2085.9 38.3898H2044.69V924.41H2085.9V38.3898Z" fill="#E0E0E0"/>
<path d="M2037.86 45.2244H1447.52C1447.2 45.2244 1446.94 45.4848 1446.94 45.806V925.04C1446.94 925.361 1447.2 925.621 1447.52 925.621H2037.86C2038.18 925.621 2038.44 925.361 2038.44 925.04V45.806C2038.44 45.4848 2038.18 45.2244 2037.86 45.2244Z" fill="#F5F5F5"/>
<path d="M2044.69 932.456H1440.68C1440.53 932.456 1440.38 932.395 1440.27 932.285C1440.16 932.176 1440.1 932.028 1440.1 931.874V39.1169C1440.1 38.9626 1440.16 38.8147 1440.27 38.7056C1440.38 38.5965 1440.53 38.5352 1440.68 38.5352H2044.69C2044.77 38.5285 2044.86 38.5386 2044.93 38.5648C2045.01 38.591 2045.08 38.6328 2045.14 38.6875C2045.2 38.7422 2045.24 38.8086 2045.28 38.8825C2045.31 38.9564 2045.33 39.0362 2045.32 39.1169V931.874C2045.33 931.955 2045.31 932.035 2045.28 932.109C2045.24 932.182 2045.2 932.249 2045.14 932.304C2045.08 932.358 2045.01 932.4 2044.93 932.426C2044.86 932.452 2044.77 932.463 2044.69 932.456ZM1454.4 918.787H2031.22C2031.38 918.775 2031.53 918.703 2031.63 918.586C2031.74 918.469 2031.8 918.316 2031.8 918.157V52.689C2031.8 52.5348 2031.74 52.3868 2031.63 52.2778C2031.52 52.1687 2031.37 52.1074 2031.22 52.1074H1454.4C1454.25 52.1074 1454.1 52.1687 1453.99 52.2778C1453.88 52.3868 1453.82 52.5348 1453.82 52.689V918.157C1453.81 918.237 1453.82 918.318 1453.85 918.394C1453.88 918.47 1453.92 918.54 1453.97 918.6C1454.03 918.659 1454.09 918.706 1454.17 918.738C1454.24 918.771 1454.32 918.787 1454.4 918.787Z" fill="#EBEBEB"/>
<path d="M1979.35 99.5615H1507.09C1506.77 99.5615 1506.51 99.8219 1506.51 100.143V870.169C1506.51 870.491 1506.77 870.751 1507.09 870.751H1979.35C1979.68 870.751 1979.94 870.491 1979.94 870.169V100.143C1979.94 99.8219 1979.68 99.5615 1979.35 99.5615Z" fill="white"/>
<path d="M1875.33 318.17H1610.09C1609.93 318.17 1609.8 318.3 1609.8 318.461V629.457C1609.8 629.618 1609.93 629.748 1610.09 629.748H1875.33C1875.49 629.748 1875.62 629.618 1875.62 629.457V318.461C1875.62 318.3 1875.49 318.17 1875.33 318.17Z" fill="#EBEBEB"/>
<path d="M1854.39 591.698C1854.73 592.716 1841.6 598.435 1816.63 595.527C1801.3 593.523 1786.71 587.689 1774.22 578.562C1757.22 565.945 1745.48 547.491 1741.26 526.745C1738.84 513.757 1739.92 500.359 1744.38 487.924C1748.85 475.489 1756.53 464.464 1766.66 455.976C1772.36 451.217 1778.82 447.434 1785.76 444.779C1793.41 441.967 1801.62 441.036 1809.7 442.065C1818.57 442.911 1826.94 446.561 1833.6 452.486C1837.34 455.999 1840.16 460.381 1841.8 465.243C1843.44 470.105 1843.85 475.297 1843 480.358C1841.19 489.475 1836.62 497.816 1829.92 504.254C1823.96 510.043 1817.2 514.941 1809.85 518.796C1795.19 526.941 1778.85 531.617 1762.1 532.465C1744.39 533.426 1726.76 529.413 1711.21 520.88C1695.14 511.968 1682.09 498.467 1673.74 482.103C1665.06 465.364 1662.67 446.068 1667 427.717C1671.23 409.985 1681.32 394.202 1695.65 382.929C1702.87 377.36 1711.1 373.23 1719.88 370.762C1728.72 368.43 1737.97 368.148 1746.93 369.938C1756.42 371.734 1765.06 376.606 1771.51 383.801C1777.73 391.126 1781.16 400.414 1781.2 410.025C1781.26 418.781 1779.04 427.402 1774.75 435.036C1770.84 441.964 1765.72 448.137 1759.63 453.262C1748.62 462.5 1735.79 469.321 1721.97 473.281C1709.12 477.021 1695.64 478.061 1682.37 476.334C1669.99 474.649 1658.18 470.12 1647.85 463.102C1638.96 457.262 1631.42 449.585 1625.75 440.589C1620.07 431.593 1616.39 421.485 1614.94 410.946C1613.19 395.038 1617.56 379.06 1627.16 366.254C1632.87 358.286 1640.67 352.047 1649.7 348.223C1655.9 345.848 1659.39 345.945 1659.39 346.526C1659.39 347.108 1656.58 348.756 1651.59 352.101C1644.41 357.02 1638.4 363.457 1633.99 370.956C1627.13 382.428 1624.58 395.972 1626.82 409.152C1628.56 417.628 1632.05 425.649 1637.06 432.707C1642.06 439.766 1648.48 445.709 1655.9 450.16C1664.96 455.48 1675.07 458.757 1685.53 459.761C1695.99 460.766 1706.54 459.474 1716.44 455.976C1727.59 452.412 1737.89 446.587 1746.69 438.866C1750.97 435.472 1754.46 431.177 1756.9 426.284C1759.33 421.392 1760.67 416.022 1760.79 410.558C1760.76 405.558 1758.89 400.744 1755.54 397.034C1752.19 393.324 1747.59 390.978 1742.62 390.442C1736.83 389.412 1730.88 389.693 1725.22 391.266C1719.27 393.076 1713.71 395.987 1708.83 399.846C1698.45 408.22 1691.17 419.821 1688.13 432.807C1685.1 446.162 1686.9 460.162 1693.22 472.311C1699.62 484.815 1709.57 495.151 1721.82 502.025C1733.83 508.682 1747.47 511.855 1761.18 511.186C1774.74 510.655 1788 507.041 1799.96 500.619C1805.6 497.733 1810.81 494.061 1815.42 489.713C1819.24 486.33 1821.97 481.895 1823.27 476.965C1823.64 475.121 1823.54 473.214 1822.98 471.419C1822.43 469.624 1821.43 467.997 1820.08 466.689C1816.49 463.539 1812.02 461.575 1807.28 461.066C1802.22 460.304 1797.06 460.736 1792.2 462.326C1787.14 464.102 1782.41 466.706 1778.2 470.033C1770.24 476.357 1764.07 484.645 1760.3 494.081C1756.52 503.516 1755.28 513.772 1756.67 523.837C1759.53 541.334 1768.51 557.245 1782.02 568.722C1792.6 577.5 1805.06 583.721 1818.43 586.899C1840.92 592.328 1854.39 589.71 1854.39 591.698Z" fill="#E0E0E0"/>
<path d="M781.708 34.5605H77.1675V1300.21H781.708V34.5605Z" fill="#EBEBEB"/>
<path d="M746.275 71.2539H105.33V1262.5H746.275V71.2539Z" fill="#FAFAFA"/>
<path d="M811.47 1311.6L781.708 1300.16V13.0874H811.47V1311.6Z" fill="#E0E0E0"/>
<path d="M760.235 413.902H105.33V426.602H760.235V413.902Z" fill="#E0E0E0"/>
<path d="M760.235 697.609H105.33V710.309H760.235V697.609Z" fill="#E0E0E0"/>
<path d="M760.235 981.267H105.33V993.967H760.235V981.267Z" fill="#E0E0E0"/>
<path d="M409.588 420.301L409.588 1296.29H441.968L441.968 420.301H409.588Z" fill="#E0E0E0"/>
<path d="M243.426 71.2539H228.739V420.301H243.426V71.2539Z" fill="#E0E0E0"/>
<path d="M369.938 71.2539H355.251V420.301H369.938V71.2539Z" fill="#E0E0E0"/>
<path d="M496.499 71.2539H481.812V420.301H496.499V71.2539Z" fill="#E0E0E0"/>
<path d="M623.011 71.2539H608.324V420.301H623.011V71.2539Z" fill="#E0E0E0"/>
<path d="M77.1674 13.0874H47.3572V1308.02H77.1674V13.0874Z" fill="#E0E0E0"/>
<path d="M811.47 0H47.3572V34.5121H811.47V0Z" fill="#E0E0E0"/>
<path d="M831.683 1315.82H26.2234V1348.01H831.683V1315.82Z" fill="#E0E0E0"/>
<path d="M781.708 1300.16L831.683 1315.82H26.2234L77.1675 1300.16H781.708Z" fill="#EBEBEB"/>
<path d="M399.943 1443.64H153.026V1508.98H399.943V1443.64Z" fill="#EBEBEB"/>
<path d="M295.534 1577.76C295.534 1577.76 295.534 1577.33 295.534 1576.55C295.534 1575.78 295.534 1574.61 295.534 1573.21C295.534 1570.15 295.534 1565.84 295.534 1560.36C295.534 1549.07 295.534 1532.88 295.098 1512.42L295.873 1513.2L48.9568 1513.68C49.5385 1513.15 47.6965 1514.94 50.2171 1512.42V1577.72L48.9568 1576.45L224.91 1577.04L276.872 1577.38H290.929H294.564H295.873H294.758H291.22H277.454L225.783 1577.76L48.9568 1578.3H47.745V1577.08C47.745 1566.57 47.745 1555.85 47.745 1544.95V1512.67L49.0053 1511.41L295.922 1511.89H296.697V1512.67C296.697 1533.31 296.358 1549.7 296.261 1561.14C296.261 1566.57 296.261 1570.83 296.261 1573.84C296.261 1575.15 296.261 1576.21 296.261 1577.04C296.048 1577.31 295.804 1577.55 295.534 1577.76Z" fill="#E0E0E0"/>
<path d="M1318.39 13.9115H1071.47V79.2518H1318.39V13.9115Z" fill="#EBEBEB"/>
<path d="M1214.03 148.033C1213.96 147.632 1213.96 147.223 1214.03 146.822C1214.03 145.949 1214.03 144.834 1214.03 143.477C1214.03 140.423 1214.03 136.109 1214.03 130.632C1214.03 119.338 1213.79 103.148 1213.64 82.6932L1214.42 83.4688L967.501 83.9535C968.034 83.3718 966.241 85.2138 968.713 82.6932V148.033L967.453 146.773L1143.45 147.355L1195.17 147.694H1209.23H1212.91H1214.22H1213.06H1209.52H1195.76L1144.08 148.082L967.259 148.615H966.047V115.897C966.047 110.419 966.047 104.942 966.047 99.4161V82.7417C968.567 80.2212 966.774 82.0631 967.356 81.4814L1214.27 81.9662H1214.56V82.7417C1214.56 103.391 1214.27 119.726 1214.18 131.214C1214.18 136.643 1214.18 140.908 1214.18 143.913C1214.18 145.222 1214.18 146.288 1214.18 147.113C1214.14 147.422 1214.09 147.729 1214.03 148.033Z" fill="#E0E0E0"/>
<path d="M1837.62 1466.67C1837.58 1466.28 1837.58 1465.89 1837.62 1465.5C1837.62 1464.63 1837.62 1463.52 1837.62 1462.16C1837.62 1459.06 1837.62 1454.79 1837.62 1449.26C1837.62 1438.02 1837.38 1421.78 1837.19 1401.37L1837.96 1402.1L1591.05 1402.63L1592.31 1401.37V1434.43C1592.31 1445.34 1592.31 1456.1 1592.31 1466.57L1591.09 1465.36L1767.05 1465.89L1818.96 1466.28H1833.02H1836.7H1838.01H1836.85H1833.36H1819.54L1767.92 1466.62L1591.09 1467.2H1589.83V1401.47L1591.09 1400.21L1838.01 1400.7H1838.79V1401.18C1838.79 1421.78 1838.45 1438.16 1838.35 1449.65C1838.35 1455.08 1838.35 1459.35 1838.35 1462.35C1838.35 1463.66 1838.35 1464.73 1838.35 1465.55C1838.15 1465.95 1837.9 1466.32 1837.62 1466.67Z" fill="#E0E0E0"/>
<path d="M1871.12 1401.18C1871.05 1400.76 1871.05 1400.34 1871.12 1399.92C1871.12 1399 1871.12 1397.84 1871.12 1396.48C1871.12 1393.23 1871.12 1388.87 1870.87 1383.34C1870.87 1371.9 1870.58 1355.71 1870.39 1335.84L1871.31 1336.76L1722.94 1337.1C1721.82 1338.21 1724.44 1335.55 1724.2 1335.84V1352.8C1724.2 1358.43 1724.2 1363.95 1724.2 1369.43V1401.18L1722.99 1399.97L1829.09 1400.55L1860.02 1400.89H1868.35H1871.36C1870.45 1400.96 1869.55 1400.96 1868.64 1400.89H1860.55L1829.91 1401.23L1722.99 1401.76H1721.77V1401.18C1721.77 1391 1721.77 1380.43 1721.77 1369.48V1335.89L1723.03 1334.63L1871.41 1334.97H1872.28V1335.89C1872.28 1356 1871.94 1372.39 1871.79 1383.97C1871.79 1389.4 1871.79 1393.67 1871.79 1396.87C1871.79 1400.07 1871.16 1401.42 1871.12 1401.18Z" fill="#E0E0E0"/>
<path d="M1430.41 1967.62C1430.37 1967.22 1430.37 1966.82 1430.41 1966.41C1430.41 1965.54 1430.41 1964.43 1430.41 1963.07C1430.41 1960.01 1430.41 1955.7 1430.41 1950.22C1430.41 1938.93 1430.41 1922.74 1429.97 1902.28L1430.75 1903.06L1183.83 1903.54C1184.36 1902.96 1182.57 1904.8 1185.04 1902.28V1967.53L1183.83 1966.27L1359.78 1966.85L1411.7 1967.19H1425.76H1429.44C1429.87 1967.12 1430.31 1967.12 1430.75 1967.19H1429.58H1426.05H1412.28L1360.61 1967.53L1183.83 1968.11H1182.57V1902.38L1183.83 1901.12L1430.75 1901.61H1431.52V1902.38C1431.52 1923.03 1431.23 1939.36 1431.14 1950.85C1431.14 1956.28 1431.14 1960.55 1431.14 1963.55C1431.14 1964.86 1431.14 1965.93 1431.14 1966.75C1430.91 1967.06 1430.67 1967.35 1430.41 1967.62Z" fill="#E0E0E0"/>
<path d="M1463.85 1902.28C1463.85 1902.28 1463.85 1901.85 1463.85 1901.02C1463.85 1900.2 1463.85 1898.94 1463.85 1897.58C1463.85 1894.38 1463.85 1889.97 1463.85 1884.49C1463.85 1873.01 1463.56 1856.87 1463.37 1836.94L1464.24 1837.86L1315.92 1838.2C1314.75 1839.32 1317.42 1836.7 1317.18 1836.94V1870.53C1317.18 1881.49 1317.18 1892.06 1317.18 1902.24L1316.02 1901.02L1422.12 1901.61L1453.05 1901.94H1461.38H1464.34C1463.45 1902.01 1462.56 1902.01 1461.67 1901.94H1453.58L1422.94 1902.28L1316.02 1902.87H1314.8V1901.65C1314.8 1891.47 1314.8 1880.91 1314.8 1869.95V1836.36L1316.06 1835.1L1464.39 1835.49H1465.31V1836.36C1465.31 1856.48 1464.92 1872.86 1464.82 1884.45C1464.82 1889.88 1464.82 1894.14 1464.82 1897.34C1464.66 1899.01 1464.34 1900.67 1463.85 1902.28Z" fill="#E0E0E0"/>
<path d="M1738.93 1922.5C1738.93 1922.5 1708.98 1715.62 1711.35 1595.07C1713.73 1474.52 1711.35 1339.28 1711.35 1339.28H1725.22C1725.22 1339.28 1715.81 1578.25 1726.04 1722.21C1736.27 1866.17 1763.17 1922.25 1763.17 1922.25H1738.93" fill="#E0E0E0"/>
<path d="M1828.56 1106.66C1826.42 1099.32 1821.98 1092.85 1815.91 1088.2C1807.13 1082.62 1795.6 1084.9 1785.81 1088.2C1743.88 1103.03 1706.75 1181.12 1689.83 1222.22L1745.43 1409.66C1845.81 1316.69 1863.22 1194.5 1828.56 1106.66Z" fill="#E0E0E0"/>
<path d="M1812.66 1095.81C1812.52 1096.65 1812.26 1097.46 1811.88 1098.23C1811.16 1100.02 1810.24 1102.3 1809.17 1105.06C1806.7 1110.98 1803.3 1119.61 1799.18 1130.22C1790.99 1151.5 1780.57 1181.26 1771.26 1214.76C1761.96 1248.25 1755.56 1279.18 1751.63 1301.67C1749.65 1312.86 1748.14 1321.98 1747.17 1328.28C1746.69 1331.25 1746.3 1333.67 1746.01 1335.55C1746.33 1335.61 1746.62 1335.79 1746.81 1336.05C1747.01 1336.31 1747.1 1336.63 1747.07 1336.96C1747.04 1337.28 1746.89 1337.58 1746.65 1337.8C1746.41 1338.02 1746.09 1338.14 1745.77 1338.14C1745.44 1338.14 1745.13 1338.02 1744.89 1337.8C1744.65 1337.58 1744.49 1337.28 1744.46 1336.96C1744.43 1336.63 1744.53 1336.31 1744.72 1336.05C1744.92 1335.79 1745.21 1335.61 1745.53 1335.55C1745.53 1333.61 1746.01 1331.19 1746.3 1328.23C1746.98 1321.88 1748.24 1312.72 1750.03 1301.42C1754.74 1272.01 1761.08 1242.88 1769.03 1214.18C1777.03 1185.52 1786.59 1157.34 1797.68 1129.74C1802 1119.17 1805.63 1110.69 1808.35 1104.87L1811.45 1098.23C1811.75 1097.38 1812.16 1096.56 1812.66 1095.81Z" fill="#EBEBEB"/>
<path d="M1720.71 1454.79C1668.55 1425.95 1637.87 1371.76 1634.96 1312.28C1632.97 1270.69 1645.77 1229.88 1660.21 1190.81C1661.11 1187.28 1663.2 1184.16 1666.13 1181.99C1670.49 1179.52 1675.82 1181.99 1680.33 1184.22C1718.24 1205.79 1741.16 1246.94 1753.38 1288.77C1762.16 1316.53 1765.08 1345.81 1761.96 1374.76C1757.19 1405.19 1742.72 1433.26 1720.71 1454.79Z" fill="#EBEBEB"/>
<path d="M1720.71 1454.79C1720.59 1453.95 1720.59 1453.11 1720.71 1452.27C1720.71 1450.38 1720.71 1448 1720.71 1445.05C1720.71 1438.84 1720.42 1429.78 1719.93 1418.63C1718.44 1389.6 1715.21 1360.7 1710.24 1332.06C1704.47 1298.52 1697.44 1268.42 1692.25 1246.7C1689.73 1236.08 1687.41 1227.31 1686.1 1220.96C1685.48 1218.15 1684.95 1215.82 1684.5 1213.98C1684.25 1213.16 1684.12 1212.32 1684.11 1211.46C1684.44 1212.23 1684.72 1213.02 1684.94 1213.84L1686.97 1220.77C1688.67 1226.78 1691.04 1235.31 1693.85 1246.31C1699.43 1267.98 1706.7 1298.03 1712.52 1331.67C1717.52 1360.4 1720.53 1389.44 1721.53 1418.58C1721.87 1429.78 1721.87 1438.84 1721.53 1445.1C1721.53 1448 1721.53 1450.38 1721.24 1452.27C1721.17 1453.13 1720.99 1453.98 1720.71 1454.79Z" fill="#E0E0E0"/>
<path d="M1779.55 1771.31C1830.84 1782.61 1873.1 1818.77 1922.59 1836.36C1955.36 1848.04 1992.39 1852.16 2018.57 1875.14C2012.27 1859.29 1997.39 1848.77 1982.94 1839.71C1942.18 1814.27 1898.69 1793.5 1853.28 1777.81C1829.96 1769.76 1804.81 1763.27 1780.96 1769.66" fill="#EBEBEB"/>
<path d="M1705.34 1817.02C1641.07 1816 1573.4 1761.28 1509.47 1758.03C1576.41 1736.41 1672.24 1754.06 1705.34 1817.02Z" fill="#EBEBEB"/>
<path d="M1730.45 1662.93C1763.07 1651.15 1798.89 1650.62 1833.21 1655.95C1867.53 1661.28 1900.59 1672.24 1933.5 1683.19C1930.2 1660.89 1912.12 1644.12 1895.16 1629.29C1882.73 1617.72 1869.25 1607.35 1854.88 1598.32C1840.34 1589.27 1823.53 1584.55 1806.41 1584.7C1796.17 1585.37 1786.17 1588.1 1777.01 1592.72C1767.85 1597.35 1759.71 1603.76 1753.09 1611.6C1740.19 1625.81 1732.24 1643.82 1730.45 1662.93Z" fill="#EBEBEB"/>
<path d="M1598.56 1591.92C1558.13 1557.41 1496.77 1560.75 1443.45 1561.96C1528.89 1602.68 1609.47 1652.89 1683.67 1711.64C1686.05 1674.08 1649.65 1635.54 1598.56 1591.92Z" fill="#455A64"/>
<path d="M1598.56 1591.92C1558.13 1557.41 1496.77 1560.75 1443.45 1561.96C1528.89 1602.68 1609.47 1652.89 1683.67 1711.64C1686.05 1674.08 1649.65 1635.54 1598.56 1591.92Z" fill="#EBEBEB"/>
<path d="M1748.63 1544.27C1768.34 1530.57 1789.12 1518.48 1810.77 1508.11C1832.05 1498.42 1851.92 1483 1872.47 1471.85C1899.13 1457.31 1922.25 1437.34 1946.73 1419.45C1971.21 1401.57 1998.06 1385.52 2028.02 1380.68C2003.37 1376.27 1978.03 1377.73 1954.05 1384.94C1930.16 1392.13 1906.87 1401.19 1884.4 1412.04C1852.84 1426.24 1820.71 1440.83 1794.92 1463.9C1769.13 1486.98 1745.82 1509.76 1748.53 1544.27" fill="#EBEBEB"/>
<path d="M1921.43 1817.02C1921.43 1817.02 1920.7 1816.78 1919.39 1816.15L1913.77 1813.24C1908.92 1810.67 1901.99 1806.84 1893.27 1802.48C1888.91 1800.15 1884.11 1797.63 1878.73 1795.35C1873.35 1793.08 1867.97 1790.26 1862.05 1787.7C1849.27 1781.96 1836.02 1777.34 1822.45 1773.88C1809 1770.2 1794.86 1769.85 1781.25 1772.86C1775.28 1774.13 1769.43 1775.88 1763.75 1778.1C1758.86 1780.08 1754.15 1782.5 1749.69 1785.32C1743.18 1789.39 1737.22 1794.28 1731.95 1799.86C1728.22 1803.84 1726.43 1806.31 1726.23 1806.16C1726.55 1805.49 1726.94 1804.86 1727.4 1804.27C1728.22 1803.06 1729.53 1801.37 1731.27 1799.43C1736.36 1793.5 1742.25 1788.31 1748.77 1784.01C1753.3 1781.03 1758.08 1778.47 1763.07 1776.35C1768.81 1774.04 1774.73 1772.21 1780.76 1770.88C1794.69 1767.62 1809.2 1767.91 1822.98 1771.7C1836.68 1775.2 1850.03 1779.92 1862.88 1785.81C1868.84 1788.42 1874.41 1791.04 1879.55 1793.71C1884.69 1796.37 1889.54 1798.55 1893.8 1801.07C1902.48 1805.68 1909.31 1809.7 1914.01 1812.51L1919.44 1815.81C1920.15 1816.13 1920.82 1816.54 1921.43 1817.02Z" fill="#E0E0E0"/>
<path d="M1657.4 1785.18C1658.79 1785.39 1660.15 1785.79 1661.43 1786.39C1665.02 1787.65 1668.51 1789.15 1671.9 1790.89C1683.15 1796.63 1693.5 1803.97 1702.63 1812.71C1711.72 1821.45 1719.47 1831.5 1725.6 1842.52C1727.44 1845.83 1729.06 1849.27 1730.45 1852.79C1731.1 1854.04 1731.56 1855.38 1731.81 1856.77C1731.42 1856.77 1729.04 1851.48 1724.1 1843.29C1711.2 1821.98 1692.96 1804.42 1671.17 1792.35C1662.78 1787.74 1657.26 1785.56 1657.4 1785.18Z" fill="#E0E0E0"/>
<path d="M1515.09 1588.72C1516.02 1588.87 1516.93 1589.13 1517.8 1589.49L1525.51 1592.26L1537.68 1596.72C1542.52 1598.51 1547.37 1601.08 1553.38 1603.65C1583.53 1617.6 1611.67 1635.53 1637.04 1656.97C1650.92 1668.87 1663.96 1681.71 1676.06 1695.41C1685.9 1706.61 1695.15 1718.3 1703.79 1730.45C1711.11 1740.87 1716.68 1749.5 1720.47 1755.51C1722.31 1758.32 1723.76 1760.36 1724.88 1762.39C1725.46 1763.15 1725.93 1763.98 1726.28 1764.87C1725.6 1764.21 1725 1763.48 1724.49 1762.68C1723.37 1761.18 1721.73 1758.95 1719.64 1756C1715.62 1750.18 1709.95 1741.45 1702.34 1731.42C1694.73 1721.39 1685.47 1709.37 1674.42 1696.81C1662.3 1683.32 1649.35 1670.59 1635.64 1658.71C1610.38 1637.43 1582.53 1619.43 1552.75 1605.15C1546.98 1602.48 1541.94 1599.77 1537.24 1597.93L1525.27 1593.08L1517.71 1589.93C1516.8 1589.61 1515.92 1589.2 1515.09 1588.72Z" fill="#E0E0E0"/>
<path d="M1826.86 1626.77C1825.14 1626.73 1823.44 1626.51 1821.77 1626.09L1815.86 1625.02C1813.53 1624.54 1811.01 1624.54 1807.96 1624.25C1796.16 1623.19 1784.28 1624.75 1773.17 1628.83C1762.06 1632.92 1751.99 1639.41 1743.68 1647.85C1738.79 1652.68 1734.47 1658.05 1730.79 1663.85C1727.47 1669.28 1724.51 1674.91 1721.92 1680.72C1722.16 1679.06 1722.6 1677.43 1723.23 1675.87C1724.87 1671.45 1726.93 1667.2 1729.38 1663.17C1732.97 1657.15 1737.27 1651.59 1742.18 1646.59C1748.14 1640.35 1755.08 1635.13 1762.73 1631.13C1776.68 1623.86 1792.49 1620.97 1808.1 1622.84C1810.77 1623.07 1813.42 1623.44 1816.05 1623.96L1821.97 1625.41C1823.64 1625.69 1825.28 1626.14 1826.86 1626.77Z" fill="#E0E0E0"/>
<path d="M1891.47 1426.39C1890.72 1426.96 1889.91 1427.47 1889.05 1427.89L1881.88 1431.77C1875.62 1435.16 1866.66 1440.1 1855.75 1446.31C1844.84 1452.51 1832.14 1460.85 1818.52 1470.54C1803.68 1480.92 1789.78 1492.58 1776.98 1505.4C1770.35 1511.93 1764.63 1519.33 1759.97 1527.4C1755.75 1535.45 1751.73 1543.3 1748.05 1550.76C1741.37 1563.99 1735.39 1577.57 1730.16 1591.43C1726.69 1600.78 1723.79 1610.33 1721.48 1620.03C1719.84 1626.91 1719.25 1630.79 1719.01 1630.74C1719.04 1629.8 1719.14 1628.86 1719.3 1627.93C1719.3 1626.09 1719.88 1623.33 1720.61 1619.84C1722.59 1609.96 1725.28 1600.24 1728.66 1590.75C1733.68 1576.75 1739.51 1563.04 1746.11 1549.7C1749.79 1542.14 1753.77 1534.33 1757.98 1526.19C1762.73 1517.93 1768.57 1510.35 1775.34 1503.65C1788.22 1490.73 1802.27 1479.03 1817.31 1468.7C1831.03 1459.01 1843.97 1451.15 1854.93 1444.81C1865.88 1438.46 1875.09 1433.75 1881.44 1430.65L1888.81 1427.16C1889.67 1426.81 1890.56 1426.55 1891.47 1426.39Z" fill="#E0E0E0"/>
<path d="M1711.26 1620.95C1710.65 1619.21 1710.23 1617.4 1710 1615.57C1709.22 1611.6 1708.3 1606.6 1707.18 1600.69C1701.18 1568.02 1690.93 1536.28 1676.7 1506.27L1670.39 1492.5C1669.51 1490.86 1668.83 1489.12 1668.36 1487.31C1669.48 1488.82 1670.44 1490.45 1671.22 1492.16C1672.91 1495.26 1675.34 1499.87 1678.15 1505.59C1685.62 1520.52 1691.99 1535.97 1697.2 1551.83C1702.26 1567.68 1706.14 1583.88 1708.78 1600.3C1709.8 1606.65 1710.53 1611.74 1710.87 1615.33C1711.19 1617.19 1711.32 1619.07 1711.26 1620.95Z" fill="#E0E0E0"/>
<path d="M1706.6 1474.76C1704.59 1450.43 1697.47 1426.8 1685.71 1405.4C1669.88 1375.94 1647.79 1350.31 1621 1330.32C1594.2 1310.32 1563.34 1296.44 1530.6 1289.65L1674.32 1503.84L1692.84 1542.04C1705.44 1521.29 1708.25 1499.05 1706.6 1474.76Z" fill="#E0E0E0"/>
<path d="M1912.75 1896.9H1578.59V1956.14H1912.75V1896.9Z" fill="#EBEBEB"/>
<path d="M1603.55 1944.36L1632 2128.16H1853.86L1887.79 1944.36H1603.55Z" fill="#EBEBEB"/>
<path d="M1912.56 1956.18C1912.56 1956.86 1837.19 1957.4 1744.22 1957.4C1651.25 1957.4 1575.87 1956.86 1575.87 1956.18C1575.87 1955.51 1651.25 1955.02 1744.22 1955.02C1837.19 1955.02 1912.56 1955.55 1912.56 1956.18Z" fill="#E0E0E0"/>
<path d="M441.774 1818.33C461.405 1806.84 485.059 1804.27 507.647 1806.75C519.814 1808.1 532.514 1811.06 541.19 1819.64C549.867 1828.22 552.242 1843.88 543.274 1852.31C537.444 1856.75 530.237 1859 522.916 1858.66C505.369 1859.39 485.738 1857.35 472.311 1868.6C464.653 1875.04 459.854 1885.37 450.45 1888.81C445.739 1890.18 440.709 1889.97 436.125 1888.22C431.541 1886.47 427.653 1883.27 425.051 1879.11C420.038 1870.58 418.477 1860.45 420.689 1850.81C421.466 1844.14 423.773 1837.73 427.431 1832.1C431.088 1826.47 435.997 1821.76 441.774 1818.33Z" fill="#EBEBEB"/>
<path d="M393.108 1773.59C406.341 1790.56 429.995 1783.28 440.562 1772.14C451.129 1760.99 455.104 1744.94 458.448 1729.87C466.398 1695.41 474.347 1659.25 465.283 1625.07C462.953 1614.7 457.823 1605.16 450.45 1597.49C446.726 1593.73 442.08 1591.01 436.977 1589.61C431.873 1588.21 426.491 1588.17 421.367 1589.49C409.443 1593.32 402.56 1605.54 397.761 1617.07C383.539 1651.18 377.082 1688.02 378.857 1724.92C379.73 1742.08 382.686 1759.97 393.399 1773.4" fill="#EBEBEB"/>
<path d="M360.583 1800.69C373.137 1784.06 374.446 1760.75 367.418 1741.16C359.587 1721.75 346.576 1704.87 329.804 1692.35C310.683 1677.08 288.769 1665.69 265.287 1658.81C256.168 1655.67 246.478 1654.55 236.883 1655.51C232.101 1656.04 227.522 1657.73 223.543 1660.44C219.564 1663.14 216.306 1666.77 214.052 1671.02C208.139 1683.97 215.264 1698.85 222.729 1710.92C235.929 1732.16 250.774 1752.34 267.129 1771.26C280.314 1786.48 295.243 1801.41 314.389 1807.57C333.536 1813.73 353.167 1811.88 362.231 1798.31" fill="#EBEBEB"/>
<path d="M404.16 1997.39C404.634 1994.71 404.861 1992 404.838 1989.29C404.838 1983.43 405.42 1976.11 405.808 1967.33C406.315 1956.52 407.383 1945.75 409.007 1935.05C411.224 1922 414.466 1909.15 418.701 1896.61C422.835 1884.1 428.727 1872.23 436.2 1861.37C442.287 1852.55 450.248 1845.19 459.515 1839.8C465.818 1836.26 472.638 1833.72 479.727 1832.29C482.41 1832.06 485.059 1831.54 487.628 1830.74C484.927 1830.55 482.214 1830.64 479.534 1831.03C472.145 1832 464.988 1834.28 458.4 1837.77C448.591 1843.02 440.144 1850.49 433.727 1859.58C425.935 1870.61 419.81 1882.73 415.55 1895.55C411.191 1908.26 407.948 1921.33 405.856 1934.61C404.33 1945.44 403.488 1956.35 403.336 1967.28C403.336 1976.59 403.336 1984.1 403.336 1989.29C403.318 1992.01 403.594 1994.72 404.16 1997.39Z" fill="#E0E0E0"/>
<path d="M406.971 2022.45C407.147 2021.21 407.147 2019.95 406.971 2018.71C406.971 2015.9 406.583 2012.41 406.389 2008.1C405.856 1998.89 405.129 1985.51 404.741 1969.03C403.82 1936.07 404.741 1900.49 407.601 1850.22C410.267 1802.92 414.339 1747.9 419.816 1711.93C420.931 1703.79 422.143 1696.42 423.306 1689.98C424.469 1683.53 425.293 1677.91 426.263 1673.4C427.232 1668.89 427.669 1665.69 428.202 1662.98C428.48 1661.75 428.626 1660.5 428.638 1659.25C428.145 1660.4 427.772 1661.6 427.523 1662.83C426.845 1665.55 426.021 1668.94 425.003 1673.16C423.985 1677.37 422.724 1683.19 421.464 1689.64C420.204 1696.08 418.798 1703.4 417.489 1711.59C410.615 1754.12 406.036 1796.98 403.772 1840C400.961 1890.36 400.912 1936.07 402.415 1969.13C403.093 1985.66 404.16 1998.99 405.081 2008.2C405.565 2012.46 405.953 2016 406.292 2018.76C406.408 2020.01 406.635 2021.24 406.971 2022.45Z" fill="#E0E0E0"/>
<path d="M402.512 1934.37C402.605 1930.66 402.395 1926.95 401.881 1923.27C401.057 1916.2 399.555 1905.92 397.034 1893.41C393.8 1878.79 389.755 1864.35 384.916 1850.18C379.193 1832.72 372.144 1815.72 363.831 1799.33C349.527 1769.05 329.815 1741.63 305.664 1718.43C301.495 1714.47 297.075 1710.77 292.432 1707.38C290.396 1705.83 288.554 1704.28 286.76 1703.06L281.913 1699.96C278.831 1697.88 275.59 1696.05 272.219 1694.48C283.441 1702.35 294.144 1710.93 304.259 1720.17C327.671 1743.6 346.901 1770.87 361.116 1800.78C369.286 1817.08 376.363 1833.91 382.299 1851.15C387.921 1867 391.993 1881.59 394.998 1893.95C398.004 1906.31 399.846 1916.44 400.96 1923.47C401.241 1927.13 401.759 1930.77 402.512 1934.37Z" fill="#E0E0E0"/>
<path d="M317.879 1983.18L326.701 2104.07H482.006L490.828 1983.18H317.879Z" fill="#E0E0E0"/>
<path d="M509.392 1935.54H302.902V1983.18H509.392V1935.54Z" fill="#E0E0E0"/>
<path d="M302.902 2099.47V2112.65H312.596H505.951V2099.47H302.902Z" fill="#EBEBEB"/>
<path d="M322.096 2135.92L312.596 2112.65H498.583L487.483 2135.92H322.096Z" fill="#E0E0E0"/>
<path d="M487.968 2022.69C487.968 2022.69 487.968 2023.12 487.241 2023.8L484.914 2026.91L475.85 2038.49L475.462 2038.97L475.074 2038.44L452.825 2007.71H454.134L432.225 2038.68L431.546 2039.65L430.771 2038.73L405.081 2007.86H406.583L405.129 2009.65L381.959 2038.73L381.184 2039.7L380.457 2038.68L358.547 2007.71H359.808L332.857 2038.44L332.373 2038.97L332.033 2038.39C328.446 2032.43 325.635 2027.63 323.599 2024.19L321.418 2020.41C321.13 2019.99 320.901 2019.53 320.739 2019.05C321.084 2019.43 321.392 2019.83 321.66 2020.26L324.035 2023.9L332.906 2037.81H332.082L358.596 2006.74L359.275 2005.92L359.856 2006.79L381.959 2037.62H380.505L403.626 2008.53L405.081 2006.74L405.808 2005.82L406.535 2006.74L432.419 2037.67H430.965L453.068 2006.84L453.746 2005.92L454.377 2006.84C463.102 2019.34 470.566 2029.96 476.141 2037.91H475.316L484.769 2026.61L487.289 2023.71C487.478 2023.34 487.705 2023 487.968 2022.69Z" fill="#F5F5F5"/>
<path d="M493.009 1982.41C493.009 1982.94 454.231 1983.38 406.099 1983.38C357.966 1983.38 319.188 1982.94 319.188 1982.41C319.188 1981.87 357.966 1981.44 406.099 1981.44C454.231 1981.44 493.009 1981.87 493.009 1982.41Z" fill="#F5F5F5"/>
<path d="M500.861 2113.96C500.861 2114.49 458.545 2114.93 406.389 2114.93C354.233 2114.93 311.917 2114.49 311.917 2113.96C311.917 2113.43 354.233 2112.99 406.389 2112.99C458.545 2112.99 500.861 2113.43 500.861 2113.96Z" fill="#F5F5F5"/>
<path d="M2070.05 2130.34C2070.05 2131.07 1606.6 2131.6 1035.07 2131.6C463.538 2131.6 0 2131.07 0 2130.34C0 2129.62 463.344 2129.08 1035.07 2129.08C1606.8 2129.08 2070.05 2129.67 2070.05 2130.34Z" fill="#263238"/>
<path d="M1171.67 1446.55C1187.8 1457.41 1204.51 1467.38 1221.74 1476.41C1228.52 1479.95 1237.2 1483.24 1243.31 1478.69C1220.19 1460.95 1196.19 1442.09 1182.47 1416.74C1200.22 1372.68 1230.95 1318.73 1283.83 1289.06C1283.83 1289.06 1285.53 1288.19 1288.68 1286.79C1295.08 1297 1300.27 1307.94 1304.14 1319.36C1310.34 1336.66 1315.63 1354.6 1325.81 1369.92C1329.2 1365.7 1327.94 1359.59 1326.48 1354.4L1305.25 1279.32C1327.75 1269.53 1350.89 1261.3 1374.52 1254.7L1396.04 1304.58C1399.92 1300.75 1399.1 1294.49 1398.37 1289.11C1396.45 1275.9 1396.45 1262.48 1398.37 1249.27C1411.13 1246.67 1424.21 1246.1 1437.15 1247.57C1474.47 1253.1 1496.67 1269.14 1494.54 1293.14C1474.4 1291.3 1454.16 1290.8 1433.95 1291.63C1453.15 1297.14 1472.93 1300.4 1492.89 1301.33C1489.83 1310.55 1485.06 1319.12 1478.83 1326.58C1470.54 1337.05 1463.56 1344.76 1457.02 1351.69C1424.23 1343.82 1390.1 1343.27 1357.07 1350.09C1367.54 1356.78 1381.06 1354.94 1393.52 1354.55C1411.14 1354.19 1428.64 1357.58 1444.85 1364.49C1429.63 1380.63 1414.03 1399.1 1386.3 1447.28L1373.7 1469.09C1366.34 1473.77 1357.92 1476.53 1349.22 1477.09C1337.06 1477.59 1324.89 1476.28 1313.11 1473.21C1310.73 1472.72 1307.44 1472.72 1306.85 1475.05C1306.27 1477.38 1309.67 1479.07 1312.23 1479.41C1320.57 1479.96 1328.85 1481.14 1337 1482.95C1345.23 1484.85 1352.45 1489.74 1357.26 1496.67C1333.9 1534.53 1310.54 1564.53 1279.71 1578.83C1267.36 1575.77 1255.69 1570.45 1245.29 1563.13C1249.11 1571.69 1255.05 1579.13 1262.55 1584.74C1251.57 1587.33 1240.24 1588.09 1229.01 1587.02C1154.12 1580.33 1154.85 1502.1 1168.27 1457.7C1169.19 1454.5 1170.41 1450.57 1171.67 1446.55Z" fill="#263238"/>
<path d="M1141.86 1690.32C1141.82 1689.86 1141.82 1689.41 1141.86 1688.96C1141.86 1687.89 1142.19 1686.63 1142.44 1684.98C1143.07 1681.54 1143.55 1676.36 1145.1 1669.81C1149.71 1651.49 1156 1633.64 1163.91 1616.49C1175.66 1591.08 1189.07 1566.47 1204.04 1542.82C1220.77 1516.01 1240.59 1487.46 1262.21 1458.18C1273.07 1443.64 1283.88 1429.44 1294.45 1415.87C1305.01 1402.3 1315 1389.16 1325.08 1377.09C1334.43 1365.37 1344.51 1354.27 1355.28 1343.84L1385.04 1318.54C1403.12 1302.93 1418.19 1290.81 1429.05 1283.01C1434.43 1279.08 1438.75 1276.17 1441.7 1274.28L1445.1 1272.15C1445.87 1271.71 1446.26 1271.47 1446.31 1271.52C1445.99 1271.85 1445.63 1272.14 1445.24 1272.39L1441.99 1274.72C1439.13 1276.75 1434.92 1279.56 1429.63 1283.78C1418.97 1291.83 1404.09 1304.14 1386.01 1319.89L1356.49 1345.39C1345.86 1355.8 1335.9 1366.87 1326.68 1378.54C1316.69 1390.76 1306.71 1403.99 1296.19 1417.56C1285.67 1431.14 1274.91 1445.24 1264.05 1459.83C1242.34 1488.91 1222.51 1517.51 1205.89 1544.17C1190.86 1567.7 1177.32 1592.14 1165.36 1617.37C1157.38 1634.38 1150.89 1652.06 1145.98 1670.2C1144.28 1676.65 1143.6 1681.78 1142.82 1685.23C1142.49 1686.83 1142.19 1688.09 1142 1689.1C1142.01 1689.51 1141.96 1689.92 1141.86 1690.32Z" fill="#263238"/>
<path d="M1131.82 1570.83C1132.16 1571.07 1128.72 1576.26 1124.7 1585.37C1119.52 1597.4 1115.31 1609.81 1112.09 1622.5C1108.22 1637.38 1105.6 1651.05 1104.05 1661.04C1102.5 1671.02 1101.96 1677.18 1101.57 1677.18C1101.39 1675.72 1101.39 1674.23 1101.57 1672.77C1101.57 1669.91 1101.87 1665.84 1102.45 1660.8C1103.97 1647.71 1106.41 1634.76 1109.77 1622.02C1113 1609.18 1117.5 1596.7 1123.19 1584.74C1124.94 1581.13 1126.95 1577.65 1129.2 1574.32C1130.71 1571.9 1131.68 1570.83 1131.82 1570.83Z" fill="#263238"/>
<path d="M1234.82 1348.73C1204.82 1364.24 1178.06 1385.33 1155.96 1410.87L1174.04 1440.54C1174.04 1440.54 1153.05 1429.78 1144.08 1425.42C1129.07 1445.07 1116.76 1466.66 1107.49 1489.59C1109.41 1491.62 1111.47 1493.51 1113.64 1495.26L1130.51 1509.42C1132.94 1511.41 1135.36 1514.75 1133.66 1517.22C1132.9 1517.94 1131.96 1518.44 1130.94 1518.69C1129.92 1518.93 1128.86 1518.91 1127.85 1518.63C1118.2 1517.52 1108.72 1515.23 1099.64 1511.79C1095.36 1525.86 1092.28 1540.25 1090.43 1554.84C1087.18 1581.01 1088.83 1610.29 1106.71 1629.58C1106.71 1629.58 1109.14 1602.87 1160.03 1521.29C1210.93 1439.72 1329.25 1345.44 1329.25 1345.44C1302.78 1325.03 1264.44 1333.66 1234.82 1348.73Z" fill="#455A64"/>
<path d="M1137.01 1556.68C1129.34 1556.25 1121.72 1555.31 1114.18 1553.87C1106.55 1553.24 1098.97 1552.09 1091.49 1550.43C1106.93 1549.55 1122.38 1551.67 1137.01 1556.68Z" fill="#263238"/>
<path d="M1177.97 1495.65C1167.91 1491.66 1158.19 1486.87 1148.88 1481.35C1139.1 1476.59 1129.7 1471.08 1120.77 1464.87C1130.81 1468.87 1140.54 1473.64 1149.85 1479.12C1159.64 1483.9 1169.04 1489.43 1177.97 1495.65Z" fill="#263238"/>
<path d="M1180.29 1479.51C1172.96 1477.07 1165.92 1473.82 1159.31 1469.82C1152.29 1466.48 1145.64 1462.42 1139.48 1457.7C1146.82 1460.14 1153.86 1463.39 1160.47 1467.39C1167.48 1470.74 1174.12 1474.8 1180.29 1479.51Z" fill="#263238"/>
<path d="M1189.21 1401.18C1201.53 1414.14 1212.58 1428.24 1222.22 1443.3C1209.93 1430.32 1198.88 1416.21 1189.21 1401.18Z" fill="#263238"/>
<path d="M1216.84 1382.91C1217.57 1382.91 1220.23 1393.72 1226.05 1406.27C1231.87 1418.82 1238.46 1427.99 1237.83 1428.47C1226.25 1415.84 1218.91 1399.91 1216.84 1382.91Z" fill="#263238"/>
<path d="M1245.83 1384.6C1248.93 1387.84 1251.38 1391.64 1253.05 1395.8C1255.41 1399.59 1257.06 1403.78 1257.9 1408.16C1254.81 1404.91 1252.37 1401.11 1250.67 1396.96C1248.33 1393.17 1246.69 1388.98 1245.83 1384.6Z" fill="#263238"/>
<path d="M1271.81 1375.93C1272.34 1375.59 1274.52 1377.96 1275.88 1381.65C1277.24 1385.33 1277.09 1388.53 1276.41 1388.63C1275.73 1388.72 1274.72 1385.86 1273.5 1382.52C1272.29 1379.17 1271.18 1376.31 1271.81 1375.93Z" fill="#263238"/>
<path d="M1000.32 1694.63C1000.01 1693.34 999.83 1692.03 999.784 1690.7C999.541 1687.89 999.25 1684.16 998.814 1679.46C997.99 1669.76 996.536 1655.61 993.967 1638.31C987.578 1593.18 975.02 1549.14 956.643 1507.43C938.027 1465.79 911.92 1427.92 879.621 1395.7C869.81 1385.99 859.383 1376.93 848.406 1368.56C844.576 1365.5 841.377 1363.42 839.341 1361.82C838.241 1361.1 837.204 1360.29 836.239 1359.4C837.432 1359.97 838.569 1360.65 839.632 1361.43C841.765 1362.89 845.061 1364.83 848.987 1367.78C860.229 1375.9 870.886 1384.79 880.882 1394.39C913.747 1426.44 940.229 1464.44 958.922 1506.36C977.421 1548.28 989.811 1592.63 995.712 1638.06C998.039 1655.46 999.202 1669.62 999.784 1679.41C1000.12 1684.26 1000.17 1688.09 1000.27 1690.7C1000.37 1693.32 1000.37 1694.63 1000.32 1694.63Z" fill="#263238"/>
<path d="M656.263 1156.98C699.887 1145.83 715.204 1162.21 752.14 1170.65C810.307 1183.98 868.473 1199.25 912.098 1228.81C955.723 1258.38 983.352 1304.24 971.234 1357.56C967.696 1372.85 960.844 1387.18 951.162 1399.53C941.48 1411.88 929.204 1421.96 915.2 1429.05C895.003 1438.29 872.766 1442.16 850.635 1440.3C793.099 1436.76 751.704 1408.55 716.853 1378.45C682.037 1348.49 650.499 1314.92 622.768 1278.3C611.571 1263.42 600.956 1247.86 597.66 1229.35C595.4 1215.8 597.363 1201.89 603.283 1189.5C610.026 1177.26 621.305 1168.16 634.692 1164.15L656.263 1156.98Z" fill="#263238"/>
<path d="M1042.39 1511.31C1042.2 1510.81 1042.09 1510.29 1042.05 1509.76C1042.05 1508.55 1041.61 1507.04 1041.28 1504.91L1038.66 1487.02C1036.33 1471.51 1033.42 1448.97 1030.03 1421.1C1023.2 1365.41 1015.49 1288.24 1007.64 1202.98C999.783 1117.72 992.319 1040.55 985.969 984.854C982.77 956.983 980.104 934.443 978.116 918.884C977.196 911.225 976.468 905.215 975.935 900.949L975.451 896.102C975.396 895.57 975.396 895.034 975.451 894.502C975.644 895.015 975.758 895.555 975.79 896.102C975.79 897.265 976.226 898.816 976.565 900.707L979.183 918.593C981.51 934.153 984.418 956.644 987.811 984.515C994.645 1040.21 1002.35 1117.38 1010.2 1202.64C1018.06 1287.9 1025.52 1365.02 1031.87 1420.76C1035.07 1448.63 1037.74 1471.17 1039.72 1486.73C1040.65 1494.39 1041.37 1500.4 1041.91 1504.67L1042.39 1509.52C1042.46 1510.11 1042.46 1510.71 1042.39 1511.31Z" fill="#263238"/>
<path d="M782.677 251.861C841.619 268.826 851.071 311.53 890.915 358.208C953.929 431.886 1015.44 508.908 1051.21 598.92C1086.98 688.933 1094.01 794.941 1048.55 880.446C1026.3 922.277 986.987 960.085 939.581 960.861C908.414 961.394 878.991 945.786 854.901 926.009C787.04 870.557 753.4 784.568 728.534 700.76C703.323 615.635 684.527 528.739 672.307 440.804C667.459 404.547 663.436 367.515 670.125 331.548C674.33 307.168 684.56 284.224 699.887 264.803C706.178 257.252 714.385 251.535 723.648 248.251C732.91 244.967 742.886 244.238 752.528 246.141L782.677 251.861Z" fill="#455A64"/>
<path d="M732.606 294.128C732.606 294.128 732.945 294.661 733.478 295.679C734.012 296.697 734.884 298.442 735.902 300.526L744.966 318.703C752.819 334.505 763.919 357.481 777.297 386.031C804.102 443.083 839.535 522.722 875.404 612.008C911.274 701.293 940.599 783.405 960.715 843.171C970.749 873.078 978.65 897.314 983.885 914.182C986.454 922.471 988.732 928.966 989.895 933.571L991.398 938.418L991.834 940.163C991.529 939.65 991.3 939.095 991.156 938.515L989.411 933.668C987.859 929.111 985.727 922.665 982.964 914.279C977.438 897.508 969.295 873.369 959.019 843.558C938.515 783.986 908.85 702.069 873.029 612.783C837.208 523.498 802.018 443.858 775.649 386.564C762.513 357.966 751.704 334.845 744.094 318.703L735.466 300.866C734.545 298.83 733.818 297.23 733.236 296.019C732.93 295.425 732.718 294.787 732.606 294.128Z" fill="#263238"/>
<path d="M1057.03 1667.78C1056.87 1667.19 1056.76 1666.59 1056.69 1665.98C1056.69 1664.67 1056.25 1662.88 1055.96 1660.7C1055.33 1655.85 1054.46 1649.02 1053.35 1640.29C1052.23 1631.57 1050.92 1620.61 1049.71 1607.96C1048.5 1595.31 1046.8 1581.01 1045.54 1565.11C1044.28 1549.21 1042.68 1531.81 1041.52 1513.05C1040.35 1494.29 1039.24 1474.28 1038.22 1453.24C1036.48 1411.12 1035.51 1364.73 1035.9 1316.01C1036.28 1267.3 1038.42 1220.91 1040.98 1178.79C1042.49 1157.75 1043.75 1137.73 1045.54 1119.07C1047.33 1100.41 1048.89 1082.96 1050.39 1067.11C1051.89 1051.26 1053.88 1036.91 1055.24 1024.31C1056.59 1011.71 1058.24 1000.95 1059.55 992.125C1060.86 983.303 1061.83 976.565 1062.55 971.767C1062.89 969.585 1063.18 967.84 1063.38 966.483C1063.64 965.941 1063.95 965.422 1064.3 964.932C1064.35 965.529 1064.35 966.129 1064.3 966.726C1064.3 968.034 1063.96 969.828 1063.67 972.058C1063.09 976.905 1062.26 983.691 1061.15 992.416C1060.03 1001.14 1058.63 1012.1 1057.27 1024.7C1055.91 1037.3 1054.07 1051.6 1052.42 1067.5C1050.78 1083.4 1049.08 1100.7 1047.58 1119.41C1046.07 1138.12 1044.67 1158.19 1043.26 1179.13C1040.79 1221.25 1038.95 1267.54 1038.42 1316.21C1037.88 1364.87 1038.95 1411.21 1040.5 1453.34C1041.52 1474.42 1042.34 1494.44 1043.65 1513.15C1044.96 1531.86 1046.07 1549.26 1047.33 1565.16C1048.59 1581.06 1049.95 1595.41 1051.12 1608.06C1052.28 1620.71 1053.35 1631.52 1054.36 1640.39C1055.38 1649.26 1055.96 1656 1056.45 1660.8C1056.69 1663.03 1056.84 1664.82 1056.93 1666.13C1057.01 1666.67 1057.04 1667.23 1057.03 1667.78Z" fill="#263238"/>
<path d="M1035.85 1294.54C1036.05 1293.24 1036.37 1291.95 1036.82 1290.71C1037.64 1288 1038.75 1284.36 1040.11 1279.81C1043.02 1270.11 1047.33 1256.68 1052.81 1239.87C1063.77 1206.23 1079.47 1159.98 1097.84 1109.23C1116.21 1058.48 1133.76 1012.87 1146.9 980.007C1153.44 963.575 1158.82 950.342 1162.65 941.229C1164.54 936.867 1165.99 933.377 1167.11 930.759C1167.6 929.532 1168.17 928.334 1168.81 927.172C1168.53 928.469 1168.12 929.735 1167.59 930.953L1163.57 941.617L1148.54 980.685C1135.84 1013.69 1118.59 1059.4 1100.07 1110.11C1081.56 1160.81 1065.75 1207.05 1054.36 1240.5C1048.74 1257.02 1044.18 1270.55 1040.89 1280.15C1039.34 1284.65 1038.12 1288.24 1037.16 1290.91C1036.83 1292.15 1036.39 1293.37 1035.85 1294.54Z" fill="#263238"/>
<path d="M1054.61 473.475C1054.67 474.071 1054.67 474.672 1054.61 475.268C1054.61 476.625 1054.61 478.37 1054.27 480.552C1053.88 485.399 1053.39 492.185 1052.71 500.861C1051.26 518.457 1049.42 544.001 1047.38 575.508C1045.35 607.015 1043.36 644.581 1041.66 686.315C1039.97 728.05 1038.85 774.001 1038.22 822.037C1037.16 918.448 1038.85 1005.75 1040.55 1068.95C1041.52 1100.41 1042.29 1125.91 1042.83 1143.75C1043.12 1152.47 1043.31 1159.26 1043.46 1164.06C1043.46 1166.28 1043.46 1168.03 1043.46 1169.34C1043.46 1170.65 1043.46 1171.18 1043.46 1171.18C1043.31 1170.59 1043.23 1169.99 1043.21 1169.39C1043.21 1168.08 1043.21 1166.33 1042.88 1164.1C1042.63 1159.26 1042.29 1152.47 1041.81 1143.79C1040.89 1126.1 1039.82 1100.56 1038.75 1069C1036.53 1005.99 1034.59 918.496 1035.65 821.794C1036.28 773.565 1037.59 727.662 1039.29 686.073C1040.98 644.484 1043.26 606.773 1045.59 575.217C1047.92 543.662 1049.95 518.214 1051.7 500.619L1053.68 480.358L1054.61 475.365C1054.53 474.737 1054.53 474.103 1054.61 473.475Z" fill="#263238"/>
<g opacity="0.3">
<path d="M781.66 691.841C806.526 690.775 830.713 684.085 854.707 677.299C832.938 673.164 810.845 670.974 788.688 670.756C777.418 670.922 766.201 672.336 755.242 674.973C773.331 664.962 788.27 650.107 798.382 632.075L798.819 631.251L836.627 595.188L836.094 594.461C825.527 602.119 815.105 610.069 804.829 618.212C812.067 599.351 814.044 578.877 810.549 558.979C803.38 574.057 792.403 587.004 778.703 596.545C782.128 587.498 784.629 578.127 786.168 568.577C788.298 556.195 786.412 543.457 780.787 532.223C763.143 565.038 734.981 592.183 722.621 627.325C721.894 629.409 721.215 631.542 720.633 633.675C717.046 603.767 710.26 574.199 709.921 544.098C706.89 563.331 705.641 582.802 706.189 602.265C704.492 600.035 702.699 597.902 700.905 595.721C708.952 630.492 718.032 664.987 728.147 699.209C732.987 698.406 737.943 698.637 742.688 699.887C738.44 699.769 734.19 700.029 729.988 700.663L728.534 700.905C732.38 713.831 736.451 726.757 740.749 739.683C746.818 738.715 753.003 738.715 759.072 739.683C761.602 740.08 764.076 740.78 766.439 741.767L782.047 751.462C815.542 777.782 852.186 838.711 852.186 838.711L819.71 764.064C816.802 759.993 803.084 726.838 775.552 709.776C772.745 705.918 769.342 702.531 765.47 699.742C758.952 695.149 751.385 692.266 743.464 691.356C756.212 691.502 769.008 692.374 781.66 691.841Z" fill="black"/>
</g>
<path d="M516.857 718.113L606.676 735.32C616.806 737.259 628.343 740.168 632.996 749.426L626.549 753.303C609.923 744.627 590.68 739.44 572.842 733.672C556.798 728.486 512.785 720.149 516.857 718.113Z" fill="#263238"/>
<path d="M655.875 722.572C673.758 709.249 694.844 700.889 716.998 698.336C739.003 695.945 761.175 695.491 783.259 696.979C760.283 706.431 737.017 715.883 712.441 719.906C692.18 723.251 671.046 722.814 651.706 729.843L655.875 722.572Z" fill="#92E3A9"/>
<g opacity="0.3">
<path d="M655.875 722.572C673.758 709.249 694.844 700.889 716.998 698.336C739.003 695.945 761.175 695.491 783.259 696.979C760.283 706.431 737.017 715.883 712.441 719.906C692.18 723.251 671.046 722.814 651.706 729.843L655.875 722.572Z" fill="black"/>
</g>
<path d="M755.582 617.727L715.301 666.684C707.906 676.007 699.993 684.908 691.599 693.344C678.317 706.14 662.515 716.852 652.482 732.121C655.094 725.552 658.87 719.509 663.63 714.283C691.859 679.787 722.42 647.267 755.097 616.952" fill="#263238"/>
<path d="M646.956 742.591C643.708 716.271 640.509 689.272 646.229 663.242C654.323 626.84 679.044 596.545 692.665 561.887C699.607 572.356 703.005 584.776 702.359 597.32C701.68 609.776 699.681 622.125 696.397 634.159C690.629 658.395 684.715 683.31 671.386 704.492C665.763 713.459 651.997 729.019 647.15 742.591" fill="#92E3A9"/>
<g opacity="0.3">
<path d="M646.956 742.591C643.708 716.271 640.509 689.272 646.229 663.242C654.323 626.84 679.044 596.545 692.665 561.887C699.607 572.356 703.005 584.776 702.359 597.32C701.68 609.776 699.681 622.125 696.397 634.159C690.629 658.395 684.715 683.31 671.386 704.492C665.763 713.459 651.997 729.019 647.15 742.591" fill="black"/>
</g>
<path d="M664.115 721.942C668.849 717.497 673.976 713.49 679.432 709.969C699.695 697 715.155 677.755 723.452 655.173C731.75 632.592 732.428 607.915 725.383 584.912C718.852 604.218 706.382 620.964 689.757 632.753C689.757 632.753 677.735 633.481 667.702 658.298C657.668 683.116 645.986 739.053 645.986 739.053L664.115 721.942Z" fill="#92E3A9"/>
<path d="M569.207 790.675C612.589 769.493 605.221 751.365 662.37 735.272C719.518 719.179 754.079 782.29 758.926 787.67L812.245 857.954C812.245 857.954 732.848 771.383 695.622 770.705C658.395 770.026 669.447 789.318 595.672 810.113C521.898 830.907 489.616 823.733 489.616 823.733C516.807 814.379 543.389 803.338 569.207 790.675Z" fill="#263238"/>
<path d="M679.626 733.963C673.929 732.126 667.826 731.958 662.037 733.479C656.248 734.999 651.015 738.144 646.956 742.542C647.822 738.405 649.866 734.607 652.842 731.606C655.817 728.604 659.598 726.527 663.727 725.626C675.253 723.144 687.287 724.863 697.658 730.473C705.017 734.541 711.116 740.554 715.288 747.855C719.46 755.155 721.544 763.463 721.312 771.868C720.149 795.765 700.081 813.99 690.872 836.045C694.071 821.164 697.318 806.283 700.566 791.402C702.313 784.228 703.416 776.912 703.862 769.541C704.412 761.636 702.48 753.756 698.336 747.002C693.847 740.571 687.214 735.948 679.626 733.963Z" fill="#92E3A9"/>
<path d="M637.019 696.591C629.506 658.783 621.944 620.587 623.738 582.1C628.585 619.375 643.417 654.808 649.622 691.792C650.6 696.574 650.878 701.473 650.446 706.334C649.767 711.181 648.846 734.399 645.017 737.405L644.435 735.32C643.32 726.305 638.667 704.783 637.019 696.591Z" fill="#263238"/>
<path d="M587.626 583.942C591.199 597.631 597.921 610.296 607.257 620.926C615.11 629.797 624.659 637.116 632.366 646.132C640.073 655.148 645.938 666.781 644.338 678.511C643.223 686.945 638.425 694.458 636.292 702.747C634.647 709.534 634.84 716.636 636.851 723.324C638.861 730.012 642.617 736.043 647.731 740.798C647.441 740.798 647.441 742.979 646.471 742.494C619.278 730.037 598.435 702.844 586.899 675.021C580.96 660.553 577.966 645.047 578.09 629.408C578.215 613.77 581.457 598.313 587.626 583.942Z" fill="#92E3A9"/>
<path d="M587.626 583.942C587.626 584.233 585.784 588.789 583.215 597.708C579.755 610.326 578.396 623.427 579.192 636.486C579.806 645.51 581.432 654.436 584.039 663.097C587.078 672.992 591.241 682.506 596.448 691.453C607.672 712.476 624.946 729.649 646.035 740.749L646.859 741.137C646.745 741.085 646.621 741.058 646.495 741.058C646.37 741.058 646.246 741.085 646.132 741.137C646.132 741.137 646.132 741.137 646.132 740.846V740.41V740.07C646.108 739.959 646.108 739.843 646.132 739.731V739.44C646.419 739.25 646.757 739.149 647.101 739.149L646.132 741.379C641.534 737.09 637.991 731.795 635.779 725.909C633.568 720.023 632.748 713.705 633.384 707.449C634.741 695.137 642.69 685.636 642.642 675.069C642.275 665.008 638.438 655.384 631.784 647.828C625.936 641.171 619.722 634.843 613.171 628.876C603.638 620.024 596.088 609.253 591.019 597.272C589.641 594.044 588.491 590.724 587.578 587.335C586.996 585.057 586.899 583.845 586.851 583.748C586.802 583.651 587.287 584.815 588.062 587.19C589.175 590.484 590.453 593.719 591.892 596.884C597.248 608.535 604.897 618.987 614.383 627.615C621.087 633.532 627.433 639.845 633.384 646.519C640.457 654.413 644.555 664.527 644.969 675.118C644.969 686.703 636.874 696.349 635.807 707.74C635.249 713.62 636.042 719.551 638.126 725.079C640.209 730.606 643.528 735.585 647.828 739.634L648.701 740.41L646.956 740.652C647.198 740.889 647.499 741.056 647.828 741.137V741.573C647.683 742.071 647.435 742.533 647.101 742.93C646.911 743.13 646.674 743.28 646.412 743.364C646.149 743.449 645.87 743.466 645.599 743.415C645.328 743.353 645.068 743.255 644.823 743.124L643.999 742.736C632.718 737.181 622.549 729.608 613.995 720.391C598.819 704.142 587.546 684.647 581.034 663.388C578.531 654.553 577.035 645.463 576.575 636.292C575.935 623.04 577.574 609.776 581.422 597.078C583.055 592.507 585.133 588.107 587.626 583.942Z" fill="#263238"/>
<path d="M650.01 680.595C649.624 679.441 649.475 678.221 649.573 677.008C649.478 673.764 649.689 670.519 650.203 667.314C651.95 656.626 655.699 646.364 661.255 637.067C666.808 627.824 673.306 619.182 680.644 611.28C683.427 607.811 686.598 604.672 690.096 601.925C687.713 605.663 685.004 609.183 682.001 612.444C675.221 620.587 669.079 629.24 663.63 638.328C658.24 647.417 654.361 657.321 652.142 667.653C650.349 675.457 650.446 680.595 650.01 680.595Z" fill="#263238"/>
<path d="M683.067 710.89C686.317 709.274 689.775 708.116 693.343 707.449C710.232 703.123 727.542 700.652 744.966 700.081C748.573 699.778 752.204 699.924 755.775 700.517C755.775 701.293 739.343 701.972 719.276 704.831C699.209 707.691 683.261 711.618 683.067 710.89Z" fill="#263238"/>
<path d="M1000.17 1111.03C999.568 1110.03 999.065 1108.97 998.669 1107.88L994.791 1098.67C993.918 1096.68 993.094 1094.45 991.979 1092.07C990.865 1089.7 989.459 1087.23 988.005 1084.46C985.145 1079.04 982.14 1072.69 977.971 1066.14C956.851 1031.76 933.333 998.912 907.59 967.841C877.876 931.002 849.423 899.156 828.338 876.18L803.472 849.181L796.686 841.813C795.844 841.012 795.096 840.118 794.456 839.147C795.4 839.838 796.277 840.617 797.074 841.474L804.199 848.503C810.306 854.658 819.08 863.626 829.647 874.968C850.877 897.653 879.767 929.354 909.529 966.241C935.387 997.39 958.788 1030.5 979.522 1065.27C983.642 1071.86 986.502 1078.31 989.217 1083.83L992.997 1091.54C994.064 1093.96 994.839 1096.39 995.615 1098.33L999.056 1107.73C999.528 1108.79 999.901 1109.9 1000.17 1111.03Z" fill="#263238"/>
<path d="M1079.52 933.959C1079.52 933.959 1004.34 931.923 975.014 888.88C945.689 845.837 985.484 676.185 1145.64 590.825L1187.03 632.463L1165.12 561.451C1165.12 561.451 1205.74 485.641 1371.95 462.52C1371.95 462.52 1426.82 448.512 1462.25 458.303C1497.69 468.094 1486.98 492.718 1486.98 492.718C1486.98 492.718 1092.75 835.415 1091.01 839.971C1089.26 844.528 1079.52 933.959 1079.52 933.959Z" fill="#455A64"/>
<path opacity="0.3" d="M1462.25 458.303C1426.82 448.608 1371.95 462.52 1371.95 462.52C1205.74 485.641 1165.12 561.451 1165.12 561.451L1187.03 632.463L1145.64 590.825C985.678 676.184 945.737 845.836 975.014 888.88C1004.29 931.923 1079.52 933.959 1079.52 933.959C1079.52 933.959 1089.21 844.528 1091.01 839.971C1092.8 835.415 1486.98 492.718 1486.98 492.718C1486.98 492.718 1497.74 468.094 1462.25 458.303Z" fill="black"/>
<path d="M1288.97 593.394C1232.93 622.477 1175.59 652.239 1130.75 695.864C1139.38 703.523 1148.32 710.793 1157.56 717.677C1163.23 721.894 1169.58 726.983 1169.82 734.06C1149.14 730.505 1128.62 725.933 1108.26 720.342C1047.29 795.038 1029.45 895.326 1013.4 990.428C1013.07 992.021 1012.99 993.657 1013.16 995.276C1014.18 1004.97 1023.44 1005.6 1030.9 1004.97C1048.96 1003.94 1066.93 1001.74 1084.71 998.378L1126.2 908.414C1167.69 818.498 1315.87 657.183 1373.65 607.887C1431.43 558.591 1479.46 508.762 1482.18 502.606C1483.82 498.971 1485.23 495.238 1486.73 491.555L1288.97 593.394Z" fill="#455A64"/>
<path d="M1267.3 710.503C1262.71 708.202 1258.31 705.561 1254.12 702.602C1246.12 697.755 1235.12 690.532 1222.8 683.213C1210.49 675.894 1199.2 668.962 1191.05 664.163C1186.54 661.741 1182.2 659.003 1178.06 655.972C1182.88 657.721 1187.53 659.929 1191.93 662.564C1200.31 667.023 1211.75 673.47 1224.11 681.032C1236.47 688.593 1247.38 695.913 1255.13 701.39C1259.47 704.036 1263.54 707.087 1267.3 710.503Z" fill="#263238"/>
<path d="M1286.11 676.427C1278.69 672.868 1271.66 668.565 1265.12 663.582C1258.17 659.25 1251.68 654.232 1245.73 648.604C1253.16 652.175 1260.21 656.495 1266.77 661.498C1273.72 665.781 1280.2 670.785 1286.11 676.427Z" fill="#263238"/>
<path d="M1240.98 639.685C1240.54 640.267 1238.61 639.685 1236.62 638.037C1234.63 636.389 1233.37 634.838 1233.76 634.305C1234.15 633.771 1236.13 634.305 1238.12 636.001C1240.11 637.698 1241.42 639.152 1240.98 639.685Z" fill="#263238"/>
<path d="M1327.5 640.509C1320.27 634.427 1313.47 627.852 1307.14 620.829C1300.22 614.425 1293.75 607.559 1287.76 600.277C1295.52 605.722 1302.66 612.013 1309.03 619.036C1315.94 625.515 1322.13 632.713 1327.5 640.509Z" fill="#263238"/>
<path d="M1344.61 609.972C1345.29 609.681 1347.52 613.946 1349.7 619.666C1351.38 622.892 1352.31 626.454 1352.42 630.088C1351.79 630.33 1349.51 626.064 1347.33 620.393C1345.65 617.167 1344.73 613.605 1344.61 609.972Z" fill="#263238"/>
<path d="M1174.96 708.564C1178.38 710.053 1181.63 711.906 1184.66 714.09L1207.1 728.389L1229.64 742.591C1232.91 744.33 1235.97 746.445 1238.75 748.892C1235.24 747.691 1231.88 746.063 1228.77 744.045C1222.75 740.798 1214.56 736.047 1205.74 730.473C1196.92 724.899 1189.16 719.567 1183.64 715.544C1180.46 713.593 1177.55 711.248 1174.96 708.564Z" fill="#263238"/>
<path d="M1141.86 881.851C1136.8 882.383 1131.71 882.529 1126.63 882.287C1117.28 882.287 1104.34 882.287 1090.04 883.063C1075.74 883.838 1062.85 884.566 1053.49 885.293C1048.46 885.924 1043.39 886.184 1038.32 886.068C1043.22 884.762 1048.24 883.902 1053.3 883.499C1062.65 882.336 1075.59 881.124 1089.94 880.542C1104.29 879.961 1117.28 880.106 1126.68 880.542C1131.77 880.509 1136.85 880.947 1141.86 881.851Z" fill="#263238"/>
<path d="M1152.76 863.868C1148.53 863.375 1144.35 862.549 1140.26 861.396C1132.6 859.651 1121.98 857.373 1110.2 855.386C1098.42 853.398 1087.66 851.993 1079.86 851.12C1075.61 850.918 1071.39 850.318 1067.26 849.327C1071.49 848.864 1075.77 848.864 1080 849.327C1100.54 850.59 1120.89 854.051 1140.69 859.651C1144.86 860.597 1148.91 862.012 1152.76 863.868Z" fill="#263238"/>
<path d="M1349.07 813.796L1277.96 849.423C1269.92 853.446 1260.95 858.585 1259.21 867.406L1265.56 869.151C1278.16 858.37 1291.63 848.643 1305.84 840.068C1318.1 831.876 1352.95 814.669 1349.07 813.796Z" fill="#263238"/>
<path d="M1233.95 850.247C1215.84 843.399 1196.24 841.459 1177.14 844.624C1158.14 847.824 1139.45 852.69 1121.3 859.166C1142.71 862.433 1164.42 863.262 1186.01 861.638C1203.8 859.651 1221.35 854.319 1239.33 855.628L1233.95 850.247Z" fill="#92E3A9"/>
<g opacity="0.3">
<path d="M1233.95 850.247C1215.84 843.399 1196.24 841.459 1177.14 844.624C1158.14 847.824 1139.45 852.69 1121.3 859.166C1142.71 862.433 1164.42 863.262 1186.01 861.638C1203.8 859.651 1221.35 854.319 1239.33 855.628L1233.95 850.247Z" fill="black"/>
</g>
<path d="M1125.47 786.119L1170.94 817.577C1179.35 823.608 1188.09 829.174 1197.11 834.252C1211.22 841.862 1226.87 847.097 1238.99 857.615C1235.29 852.715 1230.71 848.554 1225.47 845.352C1193.67 823.171 1160.39 803.202 1125.86 785.586" fill="#263238"/>
<path d="M1245.92 864.983C1242.43 842.201 1238.65 818.692 1227.8 798.382C1212.43 769.832 1184.61 750.298 1164.78 724.511C1161.5 734.925 1161.62 746.112 1165.12 756.454C1168.62 766.719 1173.2 776.582 1178.79 785.877C1189.36 804.878 1200.17 824.266 1216.31 838.856C1223.14 845.012 1238.31 854.852 1245.73 864.983" fill="#92E3A9"/>
<g opacity="0.3">
<path d="M1245.92 864.983C1242.43 842.201 1238.65 818.692 1227.8 798.382C1212.43 769.832 1184.61 750.298 1164.78 724.511C1161.5 734.925 1161.62 746.112 1165.12 756.454C1168.62 766.719 1173.2 776.582 1178.79 785.877C1189.36 804.878 1200.17 824.266 1216.31 838.856C1223.14 845.012 1238.31 854.852 1245.73 864.983" fill="black"/>
</g>
<path d="M1226.68 851.799C1221.68 849.163 1216.43 847.005 1211.02 845.352C1191.03 839.241 1173.59 826.766 1161.34 809.827C1149.09 792.887 1142.7 772.41 1143.16 751.51C1153.2 766.126 1167.61 777.189 1184.32 783.114C1184.32 783.114 1194.54 780.884 1208.55 799.352C1222.56 817.82 1245.83 861.784 1245.83 861.784L1226.68 851.799Z" fill="#92E3A9"/>
<path d="M1322.41 886.941C1281.07 879.427 1282.96 862.705 1231.29 862.705C1179.61 862.705 1165.56 923.731 1162.75 929.402L1140.98 997.941C1140.98 997.941 1180.58 909.674 1211.56 900.27C1242.53 890.867 1237.88 909.674 1304.53 909.674C1371.18 909.674 1396.62 896.053 1396.62 896.053C1371.72 894.546 1346.94 891.503 1322.41 886.941Z" fill="#455A64"/>
<path d="M1216.55 865.468C1220.89 862.598 1225.96 861.023 1231.16 860.929C1236.36 860.834 1241.48 862.224 1245.92 864.934C1244.19 861.707 1241.57 859.038 1238.38 857.236C1235.19 855.435 1231.55 854.574 1227.89 854.755C1217.71 855.39 1208.07 859.576 1200.65 866.583C1195.47 871.747 1191.8 878.228 1190.03 885.327C1188.26 892.425 1188.47 899.871 1190.62 906.863C1197.26 926.591 1218.34 937.109 1231.29 953.396L1212.67 918.254C1209.49 912.675 1206.83 906.818 1204.72 900.755C1202.42 894.265 1202.18 887.221 1204.04 880.591C1206.33 874.253 1210.76 868.908 1216.55 865.468Z" fill="#92E3A9"/>
<path d="M1243.65 824.363C1241.03 790.966 1238.31 757.181 1227.7 725.384C1232.55 757.763 1228.38 790.821 1231.96 823.345C1232.26 827.561 1233.17 831.71 1234.68 835.657C1236.38 839.584 1242.63 858.827 1246.55 860.427V858.294C1245.15 850.49 1243.94 831.392 1243.65 824.363Z" fill="#263238"/>
<path d="M1258.19 718.161C1258.42 730.464 1255.77 742.651 1250.43 753.74C1245.97 763.046 1239.72 771.432 1235.41 780.787C1232.95 785.34 1231.47 790.354 1231.05 795.51C1230.63 800.667 1231.29 805.854 1232.98 810.743C1235.94 817.529 1241.71 822.667 1245.44 829.065C1248.42 834.371 1249.93 840.373 1249.82 846.455C1249.7 852.537 1247.98 858.48 1244.81 863.674C1245.05 863.674 1245.58 865.371 1246.31 864.789C1266.14 847.921 1277.14 820.243 1280.24 794.214C1281.79 780.708 1280.64 767.029 1276.85 753.973C1273.06 740.917 1266.72 728.744 1258.19 718.161Z" fill="#92E3A9"/>
<path d="M1258.19 718.161C1261.07 721.233 1263.65 724.577 1265.89 728.146C1272.15 737.864 1276.67 748.589 1279.27 759.847C1281.06 767.638 1281.95 775.606 1281.94 783.598C1281.81 792.769 1280.62 801.893 1278.4 810.791C1273.94 831.531 1263.31 850.438 1247.91 865.031L1247.33 865.565C1247.17 865.747 1246.97 865.895 1246.75 866.001C1246.5 866.11 1246.24 866.167 1245.97 866.167C1245.71 866.167 1245.44 866.11 1245.2 866.001C1244.79 865.747 1244.46 865.398 1244.23 864.983V864.644C1244.52 864.765 1244.85 864.765 1245.15 864.644L1243.65 863.141C1246.3 858.759 1247.9 853.826 1248.34 848.724C1248.78 843.621 1248.03 838.487 1246.17 833.718C1242.63 824.557 1233.61 818.353 1230.8 808.561C1228.66 799.569 1229.71 790.113 1233.76 781.805C1237.19 774.82 1241.03 768.038 1245.25 761.495C1251.17 752.043 1255.13 741.491 1256.88 730.473C1257.34 727.485 1257.65 724.476 1257.8 721.457C1257.8 719.324 1258.09 718.161 1258.09 718.307C1258.09 718.452 1258.09 719.47 1258.33 721.457C1258.37 724.518 1258.21 727.578 1257.85 730.618C1256.44 741.861 1252.67 752.68 1246.8 762.368C1242.7 768.897 1239 775.663 1235.7 782.629C1231.92 790.487 1230.98 799.41 1233.03 807.883C1235.45 816.705 1244.37 822.764 1248.44 832.797C1250.49 837.926 1251.31 843.46 1250.85 848.962C1250.39 854.464 1248.65 859.783 1245.78 864.498L1244.28 862.608C1244.59 862.484 1244.93 862.484 1245.25 862.608H1245.58L1245.88 862.85V863.141V863.48C1245.73 863.596 1245.61 863.746 1245.54 863.916L1245.15 863.48L1245.73 862.899C1260.75 848.672 1271.15 830.267 1275.59 810.064C1277.85 801.349 1279.1 792.404 1279.32 783.404C1279.41 775.571 1278.63 767.751 1276.99 760.089C1274.6 748.945 1270.39 738.269 1264.54 728.486C1260.76 721.748 1258.19 718.452 1258.19 718.161Z" fill="#263238"/>
<path d="M1228.72 813.796C1228.33 813.796 1227.17 809.628 1223.87 803.375C1219.55 795.29 1213.97 787.944 1207.34 781.611C1200.62 775.307 1193.44 769.507 1185.87 764.258C1182.6 762.223 1179.54 759.886 1176.71 757.278C1180.31 758.702 1183.73 760.557 1186.89 762.804C1194.86 767.686 1202.3 773.388 1209.09 779.818C1215.96 786.299 1221.54 794.03 1225.52 802.599C1227.37 806.063 1228.46 809.879 1228.72 813.796Z" fill="#263238"/>
<path d="M1208.21 847C1208.21 847.727 1193.91 848.26 1176.46 850.635C1159.01 853.01 1145.05 856.209 1144.91 855.482C1154.93 851.628 1165.43 849.149 1176.12 848.115C1186.72 846.275 1197.52 845.899 1208.21 847Z" fill="#263238"/>
<path d="M980.637 1544.51C981.812 1545.74 982.807 1547.13 983.594 1548.63C985.387 1551.35 987.763 1555.47 990.525 1560.6C997.604 1574.09 1003.35 1588.23 1007.68 1602.82C1012.02 1617.44 1014.94 1632.44 1016.41 1647.61C1016.89 1653.43 1017.14 1658.13 1017.14 1661.38C1017.34 1663.07 1017.34 1664.78 1017.14 1666.47C1016.7 1666.47 1016.31 1659.29 1014.81 1647.81C1010.97 1617.82 1002.29 1588.65 989.12 1561.43C983.885 1550.96 980.298 1544.71 980.637 1544.51Z" fill="#263238"/>
<path d="M984.369 1668.89C988.877 1670.25 986.842 1630.65 983.061 1614.75C978.892 1597.35 986.26 1587.85 995.712 1608.11C1005.16 1628.37 1015.83 1677.47 1015.83 1677.47L984.369 1668.89Z" fill="#AE7461"/>
<path d="M1095.95 1620.03C1089.6 1625.81 1084.5 1632.83 1080.94 1640.64C1077.38 1648.46 1075.45 1656.91 1075.25 1665.5H1094.4C1097.72 1646.99 1104.51 1629.28 1114.42 1613.29C1107.92 1611.55 1101.04 1615.43 1095.95 1620.03Z" fill="#AE7461"/>
<path d="M977.729 1141.95C957.99 1155.25 937.536 1167.45 916.46 1178.5C908.22 1182.86 897.604 1186.89 890.091 1181.31C918.399 1159.6 947.725 1136.52 964.544 1105.5C942.829 1051.65 905.408 985.63 840.553 949.324C840.553 949.324 838.469 948.258 834.688 946.513C826.824 959.012 820.477 972.404 815.784 986.405C808.125 1007.54 801.678 1029.5 789.221 1048.26C785.053 1043.12 786.652 1035.6 788.446 1029.25C797.074 998.62 805.718 967.921 814.378 937.158C786.908 925.289 758.665 915.297 729.843 907.251C721.053 927.609 712.264 947.951 703.474 968.277C698.627 963.43 699.742 955.965 700.663 949.421C702.965 933.248 702.965 916.831 700.663 900.658C685.098 897.507 669.139 896.788 653.354 898.526C607.645 905.36 580.646 924.991 583.07 954.317C607.707 952.08 632.465 951.465 657.183 952.475C633.711 959.306 609.521 963.373 585.105 964.593C588.889 975.858 594.723 986.326 602.313 995.47C612.444 1008.27 620.975 1017.72 628.973 1026.15C669.102 1016.55 710.854 1015.88 751.268 1024.21C738.422 1032.41 721.893 1030.03 706.673 1029.69C685.126 1029.23 663.728 1033.36 643.902 1041.81C662.515 1061.54 681.565 1084.17 715.544 1143.12C720.779 1152.18 725.868 1161.1 730.909 1169.77C739.919 1175.48 750.223 1178.81 760.865 1179.47C775.743 1180.04 790.623 1178.4 805.023 1174.62C807.931 1173.99 811.954 1173.99 812.682 1176.9C813.409 1179.81 809.288 1181.75 806.089 1182.18C795.894 1182.86 785.766 1184.32 775.794 1186.55C765.727 1188.83 756.886 1194.82 751.025 1203.32C779.624 1249.66 808.222 1286.59 845.836 1303.8C860.949 1300.02 875.22 1293.45 887.91 1284.41C883.283 1294.89 876.039 1304 866.873 1310.88C880.298 1314.04 894.152 1314.98 907.881 1313.64C999.493 1305.45 998.572 1209.76 982.188 1155.43C980.782 1151.6 979.328 1146.9 977.729 1141.95Z" fill="#455A64"/>
<path d="M1035.85 1662.25C1035.85 1662.25 1035.85 1661.52 1035.51 1660.07C1035.17 1658.61 1035.07 1656.29 1034.73 1653.53L1032.02 1628.37C1029.79 1606.36 1026.54 1574.76 1022.32 1535.79C1020.38 1516.4 1018.2 1494.83 1015.88 1471.85C1013.55 1448.88 1012 1424.11 1003.52 1399.53C995.176 1373.77 984.702 1348.76 972.203 1324.74C959.116 1299.78 944.38 1274.52 928.142 1249.37C895.617 1199 861.396 1153.25 829.695 1112.09C813.797 1091.59 798.964 1071.81 784.229 1053.93C771.055 1037.09 756.193 1021.64 739.877 1007.83L699.742 973.124C687.915 962.993 677.542 954.462 668.865 947.725C660.189 940.987 653.257 936.043 648.555 932.65L643.175 928.869C642.548 928.456 641.949 928.002 641.382 927.512L643.32 928.675L648.846 932.262C653.693 935.51 660.722 940.308 669.495 946.804C678.269 953.299 688.884 961.878 700.663 971.912L741.04 1006.33C757.528 1020.11 772.553 1035.56 785.877 1052.42C800.709 1070.21 815.59 1089.89 831.537 1110.59C863.335 1151.69 897.653 1197.45 930.275 1247.86C946.513 1273.12 961.297 1298.42 974.433 1323.53C987.112 1347.69 997.717 1372.89 1006.13 1398.85L1011.32 1417.47C1012.43 1423.72 1013.55 1429.92 1014.66 1435.98C1015.24 1438.99 1015.63 1442.04 1015.83 1445.1L1016.7 1454.06C1017.28 1460.03 1017.86 1465.89 1018.4 1471.61C1020.63 1494.63 1022.66 1516.01 1024.55 1535.59C1028.19 1574.37 1031.19 1606.27 1033.23 1628.27C1034.2 1639.13 1034.97 1647.66 1035.51 1653.48C1035.51 1656.24 1035.9 1658.32 1035.99 1660.02C1036.09 1661.72 1035.85 1662.25 1035.85 1662.25Z" fill="#263238"/>
<path d="M738.81 1120.04C743.719 1118.85 748.738 1118.16 753.788 1118.01C765.956 1117.15 778.169 1117.15 790.336 1118.01C802.497 1118.85 814.581 1120.57 826.496 1123.14C831.473 1123.99 836.347 1125.35 841.038 1127.22C836.016 1126.77 831.029 1125.99 826.108 1124.89C816.947 1123.34 804.247 1121.55 790.094 1120.53C775.94 1119.51 763.143 1119.56 753.837 1119.85C748.836 1120.22 743.818 1120.28 738.81 1120.04Z" fill="#263238"/>
<path d="M845.206 1027.95C839.906 1040.2 835.768 1052.92 832.846 1065.95C830.827 1079.14 830.032 1092.5 830.471 1105.84C829.286 1102.04 828.666 1098.09 828.629 1094.11C828.007 1084.53 828.593 1074.9 830.374 1065.46C832.186 1056.04 835.149 1046.87 839.196 1038.17C840.701 1034.49 842.725 1031.05 845.206 1027.95Z" fill="#263238"/>
<path d="M863.868 1000.46C864.45 1000.9 862.899 1003.86 860.427 1007.1C857.954 1010.35 855.579 1012.58 854.901 1011.95C854.222 1011.32 855.919 1008.61 858.391 1005.36C860.863 1002.11 863.335 1000.07 863.868 1000.46Z" fill="#263238"/>
<path d="M909.189 1061.29C909.529 1061.54 905.651 1066.58 900.367 1075.3C886.412 1098.06 878.102 1123.82 876.131 1150.43C875.356 1160.61 875.598 1166.96 875.21 1166.96C874.739 1165.54 874.509 1164.05 874.532 1162.55C874.316 1158.48 874.316 1154.41 874.532 1150.34C874.981 1136.87 877.298 1123.52 881.415 1110.69C885.538 1097.84 891.375 1085.62 898.768 1074.33C901.018 1070.98 903.445 1067.74 906.039 1064.64C908.123 1062.31 909.189 1061.15 909.189 1061.29Z" fill="#263238"/>
<path d="M909.723 1211.27C904.27 1211.4 898.814 1211.19 893.388 1210.64C883.354 1210.06 869.442 1209.57 854.077 1209.86C838.711 1210.15 824.994 1211.07 814.814 1211.99C809.415 1212.72 803.976 1213.13 798.528 1213.21C799.873 1212.59 801.317 1212.21 802.793 1212.09C805.556 1211.56 809.579 1210.88 814.621 1210.2C840.794 1206.84 867.259 1206.39 893.533 1208.84C898.38 1209.33 902.646 1209.86 905.409 1210.3C906.888 1210.4 908.342 1210.73 909.723 1211.27Z" fill="#263238"/>
<path d="M921.501 1234.92C921.501 1235.65 907.832 1235.6 891.206 1237.34C874.58 1239.09 861.251 1241.85 861.105 1241.13C870.703 1237.6 880.76 1235.48 890.964 1234.82C901.093 1233.36 911.382 1233.4 921.501 1234.92Z" fill="#263238"/>
<path d="M953.202 1197.06C953.832 1197.5 946.804 1207.53 940.842 1221.3C934.879 1235.07 932.31 1247.04 931.535 1246.89C932.079 1237.64 934.469 1228.6 938.563 1220.28C941.876 1211.66 946.85 1203.77 953.202 1197.06Z" fill="#263238"/>
<path d="M808.077 1079.37C802.69 1078.56 797.351 1077.46 792.081 1076.08C782.387 1073.95 768.524 1071.23 753.303 1069.63C738.083 1068.03 724.22 1067.3 714.041 1067.16C708.592 1067.34 703.138 1067.19 697.706 1066.72C699.126 1066.31 700.592 1066.09 702.069 1066.04C704.88 1065.75 709 1065.51 714.041 1065.37C727.25 1065.04 740.466 1065.62 753.594 1067.11C766.669 1068.64 779.624 1071.05 792.372 1074.33C797.219 1075.64 801.194 1076.81 803.908 1077.73C805.383 1078.03 806.794 1078.59 808.077 1079.37Z" fill="#263238"/>
<path d="M769.154 946.852C768.949 951.027 768.398 955.177 767.506 959.261C765.985 969.155 764.981 979.121 764.5 989.12C763.998 999.131 763.998 1009.16 764.5 1019.17C764.962 1023.31 765.14 1027.47 765.033 1031.63C763.723 1027.65 762.957 1023.51 762.755 1019.32C760.519 999.179 761.468 978.814 765.567 958.97C766.264 954.8 767.469 950.73 769.154 946.852Z" fill="#263238"/>
<path d="M740.507 956.062C741.234 956.062 738.713 965.999 738.762 978.214C738.81 990.428 741.137 1000.17 740.41 1000.37C734.724 986.145 734.724 970.282 740.41 956.062H740.507Z" fill="#263238"/>
<path d="M703.523 987.956C699.93 988.664 696.278 989.021 692.616 989.023C685.879 989.411 676.572 989.992 666.296 990.913C656.02 991.834 646.907 992.852 640.073 993.628C636.476 994.285 632.822 994.578 629.167 994.5C632.588 993.155 636.175 992.275 639.83 991.883C646.471 990.622 655.778 989.265 666.102 988.393C676.427 987.52 685.782 987.181 692.568 987.229C696.236 987.003 699.917 987.247 703.523 987.956Z" fill="#263238"/>
<path d="M685.83 971.67C681.839 972.69 677.68 972.871 673.615 972.203C669.499 972.361 665.394 971.685 661.546 970.216C669.638 969.022 677.89 969.517 685.782 971.67H685.83Z" fill="#263238"/>
<path d="M1191.49 1055.48C1213.45 1038.85 1254.12 1015.05 1301.57 994.743C1303.57 993.871 1305.74 993.481 1307.91 993.603C1310.09 993.725 1312.21 994.356 1314.09 995.446C1315.98 996.535 1317.58 998.052 1318.77 999.875C1319.97 1001.7 1320.72 1003.77 1320.96 1005.94C1322.95 1023.58 1325.47 1035.02 1328.42 1057.22C1331.91 1030.71 1333.27 1023.29 1335.94 996.584C1336.36 991.814 1338.16 987.271 1341.14 983.515C1344.11 979.759 1348.11 976.956 1352.66 975.451C1431.52 949.712 1517.03 941.52 1564.77 990.962C1567.78 994.064 1520.91 1013.55 1464.34 1050.53C1460.41 1053.11 1455.65 1054.11 1451.01 1053.35C1392.5 1043.31 1389.93 1050.49 1380.77 1053.88C1372.97 1056.74 1410.78 1056.59 1438.94 1062.36C1407.72 1086.88 1379.06 1114.48 1353.39 1144.76C1344.42 1155.28 1336.28 1165.41 1328.86 1175.16C1321.73 1178.5 1314.13 1180.74 1306.32 1181.8C1292.46 1183.07 1278.55 1183.62 1264.63 1183.44C1262.55 1183.44 1259.79 1183.93 1259.35 1185.87C1258.38 1188.68 1262.16 1190.71 1265.12 1191.15L1291.63 1196C1293.71 1196.39 1295.65 1197.29 1297.29 1198.62C1298.92 1199.95 1300.2 1201.66 1301.01 1203.61C1301.82 1205.56 1302.13 1207.68 1301.91 1209.78C1301.7 1211.88 1300.96 1213.89 1299.78 1215.63C1254.36 1282.57 1236.76 1321.78 1165.95 1317.42C1165.95 1317.42 1119.56 1319.07 1103.56 1261.53C1087.57 1204 1127.7 1103.56 1191.49 1055.48Z" fill="#455A64"/>
<path d="M1037.64 1687.16C1037.64 1687.16 1037.64 1686.34 1037.64 1684.69C1037.64 1683.04 1037.98 1680.52 1038.27 1677.37C1038.9 1670.98 1039.87 1661.52 1041.28 1649.36C1044.09 1625.12 1048.55 1589.93 1055.57 1546.69C1063.54 1496.11 1074.06 1445.96 1087.08 1396.43C1094.86 1367.11 1104.86 1338.43 1116.99 1310.63C1130.4 1280.94 1146.46 1252.52 1164.98 1225.71C1174.38 1211.9 1183.69 1198.28 1193.62 1185.33C1203.36 1172.58 1213.73 1160.31 1224.69 1148.59C1245.5 1126.34 1268.04 1105.79 1292.12 1087.13C1313.6 1070.23 1336.28 1054.9 1359.98 1041.28C1381 1029.83 1403.06 1020.38 1425.85 1013.06C1458.88 1002.77 1492.7 995.2 1526.97 990.428C1539.08 988.635 1548.54 987.423 1554.93 986.696L1562.2 985.872C1563.03 985.829 1563.85 985.829 1564.68 985.872L1562.25 986.308L1554.98 987.375C1548.58 988.296 1539.18 989.653 1527.11 991.592C1493 996.76 1459.34 1004.57 1426.43 1014.96C1403.79 1022.36 1381.88 1031.85 1361 1043.31C1337.31 1056.95 1314.63 1072.28 1293.14 1089.17C1269.36 1107.79 1247.08 1128.24 1226.49 1150.34C1215.77 1161.83 1205.5 1174.09 1195.61 1186.93C1185.72 1199.78 1176.22 1213.45 1167.11 1227.21C1148.66 1253.9 1132.64 1282.17 1119.22 1311.7C1107.14 1339.39 1097.14 1367.94 1089.31 1397.11C1074.14 1452.9 1064.74 1504.18 1057.32 1547.37C1049.9 1590.56 1045.35 1625.61 1042.24 1649.89C1040.74 1661.91 1039.58 1671.31 1038.75 1677.81C1038.42 1680.96 1038.08 1683.38 1037.88 1685.08C1037.83 1685.78 1037.75 1686.47 1037.64 1687.16Z" fill="#263238"/>
<path d="M1227.7 1253.44C1223.67 1254.35 1219.56 1254.9 1215.44 1255.09C1207.87 1255.91 1197.45 1257.07 1185.96 1258.77C1174.48 1260.47 1164.1 1262.26 1156.64 1263.62C1152.61 1264.59 1148.51 1265.21 1144.38 1265.46C1148.18 1263.8 1152.17 1262.6 1156.25 1261.87C1163.67 1260.03 1174.04 1257.9 1185.33 1256.25C1196.63 1254.6 1207.44 1253.68 1215.05 1253.34C1219.25 1252.85 1223.5 1252.89 1227.7 1253.44Z" fill="#263238"/>
<path d="M1244.47 1232.69C1240.08 1233.28 1235.66 1233.52 1231.24 1233.42C1223.05 1233.76 1211.85 1234.39 1199.39 1235.79C1186.93 1237.2 1175.88 1239.24 1167.88 1240.64C1163.59 1241.74 1159.21 1242.52 1154.8 1242.97C1158.85 1241.1 1163.11 1239.73 1167.5 1238.9C1177.9 1236.31 1188.45 1234.4 1199.1 1233.18C1209.75 1231.91 1220.47 1231.36 1231.19 1231.53C1235.65 1231.39 1240.1 1231.78 1244.47 1232.69Z" fill="#263238"/>
<path d="M1141.08 1134.58C1141.76 1134.58 1146.8 1157.32 1152.32 1185.58C1157.85 1213.84 1162.02 1236.91 1161.15 1237.05C1156.52 1220.26 1152.75 1203.24 1149.85 1186.06C1144.33 1157.85 1140.4 1134.58 1141.08 1134.58Z" fill="#263238"/>
<path d="M1187.03 1073.99C1187.42 1073.99 1186.21 1080.59 1184.95 1091.25C1181.64 1119.05 1182.69 1147.19 1188.05 1174.67C1190.08 1185.24 1191.78 1191.68 1191.39 1191.78C1190.6 1190.42 1190.03 1188.95 1189.7 1187.42C1188.73 1184.51 1187.56 1180.29 1186.3 1175.06C1179.92 1147.5 1178.86 1118.97 1183.2 1091.01C1184.03 1085.68 1184.9 1081.31 1185.63 1078.45C1185.86 1076.9 1186.33 1075.4 1187.03 1073.99Z" fill="#263238"/>
<path d="M1323.62 1146.9C1318.31 1147.6 1312.95 1147.96 1307.58 1147.96C1297.89 1148.5 1284.07 1149.42 1269.05 1151.16C1254.02 1152.91 1240.54 1155.14 1230.8 1156.93C1225.57 1158.1 1220.28 1158.98 1214.95 1159.55C1216.22 1158.84 1217.59 1158.35 1219.02 1158.09C1221.74 1157.27 1225.61 1156.3 1230.46 1155.18C1243.09 1152.29 1255.88 1150.11 1268.75 1148.64C1281.63 1147.14 1294.57 1146.33 1307.53 1146.22C1312.38 1146.22 1316.55 1146.22 1319.31 1146.22C1320.77 1146.24 1322.23 1146.47 1323.62 1146.9Z" fill="#263238"/>
<path d="M1352.32 1115.2C1347.44 1114.77 1342.58 1114.08 1337.78 1113.11C1314.78 1109.78 1291.4 1110.27 1268.56 1114.57C1263.86 1115.68 1259.1 1116.55 1254.31 1117.18C1258.73 1115.17 1263.39 1113.7 1268.17 1112.82C1291.11 1107.43 1314.93 1106.93 1338.07 1111.37C1342.96 1112.05 1347.74 1113.34 1352.32 1115.2Z" fill="#263238"/>
<path d="M1349.99 1090.43C1344.55 1090.96 1339.06 1090.65 1333.71 1089.51C1328.24 1089.2 1322.86 1088.04 1317.76 1086.06C1323.2 1085.57 1328.69 1085.88 1334.05 1086.98C1339.51 1087.31 1344.88 1088.48 1349.99 1090.43Z" fill="#263238"/>
<path d="M1269 1020.38C1268.04 1036.97 1266.21 1053.48 1263.52 1069.87C1259.74 1097.07 1256.15 1119.07 1255.47 1118.98C1254.79 1118.88 1257.27 1096.73 1261 1069.53C1264.73 1042.34 1268.32 1020.29 1269 1020.38Z" fill="#263238"/>
<path d="M1217.04 1084.8C1219.29 1096.22 1220.73 1107.79 1221.35 1119.41C1222.78 1130.97 1223.4 1142.62 1223.19 1154.26C1220.87 1142.85 1219.42 1131.28 1218.83 1119.65C1217.4 1108.1 1216.8 1096.45 1217.04 1084.8Z" fill="#263238"/>
<path d="M1399.68 975.111C1399.92 975.451 1396.91 978.02 1393.33 983.109C1388.75 989.911 1385.07 997.275 1382.37 1005.02C1379.08 1014.08 1376.27 1022.47 1373.5 1028.29C1372.28 1031.54 1370.49 1034.56 1368.22 1037.2C1369.2 1033.89 1370.41 1030.65 1371.85 1027.51C1374.18 1021.64 1376.7 1013.26 1380 1004.1C1382.73 996.134 1386.74 988.669 1391.87 981.994C1393.9 979.123 1396.57 976.766 1399.68 975.111Z" fill="#263238"/>
<path d="M1411.36 996.487C1410.42 1001.49 1408.67 1006.3 1406.17 1010.74C1404.4 1015.53 1401.86 1020 1398.66 1023.97C1399.6 1018.97 1401.35 1014.15 1403.85 1009.72C1405.62 1004.93 1408.16 1000.46 1411.36 996.487Z" fill="#263238"/>
<path d="M1474.71 1017.38C1467.25 1017.87 1459.75 1017.53 1452.37 1016.36C1444.89 1016.04 1437.47 1014.87 1430.26 1012.87C1445.2 1012.66 1460.12 1014.17 1474.71 1017.38Z" fill="#263238"/>
<path d="M893.775 1364.05L874.823 1394.54L878.119 1349.22C878.119 1349.22 843.558 1309.71 741.476 1318.78C741.476 1318.78 706.916 1317.95 687.139 1328.47C667.363 1338.99 677.154 1352.32 677.154 1352.32C811.712 1407.43 917.527 1474.32 980.201 1558.96C993.943 1543.15 1005.04 1525.23 1013.06 1505.88C1024.6 1476.46 1000.8 1392.89 893.775 1364.05Z" fill="#455A64"/>
<path d="M833.331 1353.87C834.795 1357.4 835.726 1361.12 836.093 1364.92C837.557 1373.98 838.206 1383.14 838.032 1392.31C837.849 1401.47 836.811 1410.59 834.93 1419.55C834.338 1423.26 833.229 1426.86 831.634 1430.26C830.858 1430.26 835.027 1413.25 835.415 1392.02C835.803 1370.79 832.555 1354.02 833.331 1353.87Z" fill="#263238"/>
<path d="M793.971 1353.97C803.544 1372.48 807.694 1393.31 805.944 1414.07C805.168 1414.07 805.072 1400.26 801.727 1383.68C798.382 1367.1 793.244 1354.26 793.971 1353.97Z" fill="#263238"/>
<path d="M858.633 1401.18C859.416 1407.68 858.872 1414.28 857.034 1420.57C855.95 1427.07 853.524 1433.28 849.908 1438.79C851.206 1432.45 852.824 1426.17 854.755 1419.99C855.714 1413.65 857.009 1407.38 858.633 1401.18Z" fill="#263238"/>
<path d="M933.425 1404.33C932.254 1407.87 930.625 1411.25 928.578 1414.36C923.99 1422.16 918.956 1429.69 913.503 1436.9C908.101 1444.16 902.274 1451.09 896.053 1457.65C893.625 1460.54 890.84 1463.12 887.765 1465.31C889.785 1462.15 892.107 1459.2 894.696 1456.49C899.156 1451.2 905.166 1443.84 911.516 1435.4C917.866 1426.97 923.198 1419.16 927.027 1413.44C928.881 1410.22 931.023 1407.17 933.425 1404.33Z" fill="#263238"/>
<path d="M967.356 1433.56C965.023 1436.61 962.32 1439.36 959.309 1441.75C954.074 1446.6 946.561 1452.9 937.933 1459.44C929.305 1465.99 921.162 1471.46 915.103 1475.2C911.97 1477.43 908.586 1479.28 905.021 1480.72C907.795 1478.07 910.851 1475.73 914.134 1473.74C919.853 1469.62 927.803 1464.05 936.382 1457.41C944.962 1450.77 952.62 1444.85 958.146 1440.39C960.971 1437.8 964.057 1435.51 967.356 1433.56Z" fill="#263238"/>
<path d="M975.063 1472.14C967.693 1477.81 959.526 1482.35 950.827 1485.62C942.497 1489.66 933.609 1492.44 924.458 1493.86C924.216 1493.13 935.946 1489.3 949.809 1483.29C963.672 1477.28 974.675 1471.51 975.063 1472.14Z" fill="#263238"/>
<path d="M983.158 615.934C983.739 616.322 969.779 641.333 951.893 671.87C934.007 702.408 919.029 726.886 918.447 726.547C917.866 726.208 931.826 701.148 949.712 670.61C967.598 640.073 982.576 615.546 983.158 615.934Z" fill="#263238"/>
<path d="M1006.13 574.781C1006.67 575.217 1003.37 579.628 998.766 584.815C994.161 590.001 990.041 593.685 989.508 593.2C991.319 589.413 993.817 585.994 996.875 583.118C1001.53 578.029 1005.65 574.296 1006.13 574.781Z" fill="#263238"/>
<path d="M1004.15 510.022C1002.91 512.101 1001.46 514.05 999.832 515.839L987.617 531.253C977.293 544.244 963.381 562.518 949.179 583.409C934.976 604.3 922.858 623.883 914.424 638.182C910.45 645.065 907.105 650.737 904.73 655.148C903.62 657.298 902.339 659.357 900.901 661.304C901.693 659.025 902.682 656.819 903.857 654.711C905.942 650.543 909.092 644.581 913.116 637.31C921.113 622.768 932.941 602.992 947.046 582.003C961.151 561.015 975.499 542.886 986.163 530.09C991.495 523.74 995.857 518.651 999.056 515.209C1000.59 513.326 1002.29 511.589 1004.15 510.022Z" fill="#263238"/>
<path d="M862.172 569.643C859.896 569.428 857.642 569.023 855.434 568.431L837.305 564.553C821.94 561.306 800.661 557.234 776.958 553.841C753.255 550.448 731.685 548.364 716.077 547.152L697.512 545.795C695.23 545.763 692.957 545.503 690.726 545.019C693 544.814 695.287 544.814 697.561 545.019C701.972 545.019 708.321 545.019 716.174 545.552C731.879 546.328 753.546 548.121 777.346 551.514C801.145 554.907 822.376 559.318 837.693 563.002C845.303 564.844 851.459 566.444 855.676 567.849C857.897 568.225 860.073 568.826 862.172 569.643Z" fill="#263238"/>
<path d="M934.928 430.044C934.097 431.861 933.074 433.584 931.874 435.182L923.004 448.754C915.636 460.29 905.845 476.48 896.247 495.045C886.65 513.609 879.04 530.914 873.902 543.517C871.527 549.479 869.491 554.52 867.891 558.591C867.262 560.491 866.45 562.325 865.468 564.069C865.736 562.077 866.24 560.124 866.97 558.252C868.085 554.568 869.83 549.333 872.254 542.886C878.465 526.084 885.717 509.685 893.969 493.784C902.218 477.873 911.428 462.479 921.55 447.688C925.427 442.016 928.675 437.508 931.244 434.503C932.307 432.888 933.542 431.393 934.928 430.044Z" fill="#263238"/>
<path d="M902.306 371.635C901.38 373.534 900.242 375.323 898.913 376.967C896.538 380.311 893.242 385.207 889.219 391.508C878.882 407.35 869.65 423.886 861.59 440.998C853.612 458.066 846.841 475.672 841.329 493.687C839.196 500.667 837.596 506.29 836.481 510.265C836.068 512.336 835.417 514.353 834.542 516.275C834.668 514.165 834.992 512.072 835.512 510.022C836.287 505.999 837.645 500.328 839.535 493.203C849.73 456.381 866.122 421.566 888.007 390.248C892.176 384.286 895.714 379.536 898.332 376.385C899.5 374.677 900.831 373.086 902.306 371.635Z" fill="#263238"/>
<path d="M857.857 397.47C858.536 397.907 852.671 407.165 848.163 419.38C843.655 431.595 841.522 442.452 840.747 442.307C841.545 425.881 847.632 410.154 858.1 397.47H857.857Z" fill="#263238"/>
<path d="M678.123 396.695C679.73 396.451 681.364 396.451 682.97 396.695C686.024 396.695 690.435 396.986 695.864 397.519C710.021 398.847 724.054 401.261 737.841 404.741C751.639 408.22 765.153 412.741 778.266 418.265C783.114 420.398 787.282 422.288 789.997 423.694C791.456 424.296 792.826 425.095 794.068 426.069C794.068 426.457 787.767 423.742 777.588 419.913C764.395 414.924 750.93 410.684 737.259 407.213C723.562 403.759 709.676 401.105 695.67 399.264C684.812 397.81 678.123 397.083 678.123 396.695Z" fill="#263238"/>
<path d="M710.939 378.421C714.604 378.02 718.308 378.134 721.942 378.76C730.736 379.759 739.418 381.577 747.874 384.189C756.358 386.766 764.572 390.158 772.401 394.32C775.765 395.819 778.885 397.812 781.659 400.233C781.272 400.912 766.779 392.575 747.147 386.613C727.516 380.651 710.89 379.1 710.939 378.421Z" fill="#263238"/>
<path d="M788.882 285.791C788.245 290.059 787.223 294.261 785.828 298.345C783.744 306.052 780.981 316.716 778.654 328.64C776.328 340.564 774.631 351.422 773.807 359.323C773.496 363.623 772.815 367.888 771.771 372.071C771.33 367.763 771.411 363.418 772.014 359.129C773.753 338.297 777.901 317.737 784.374 297.861C785.433 293.685 786.945 289.638 788.882 285.791Z" fill="#263238"/>
<path d="M738.277 485.447C743.17 485.509 748.043 486.078 752.819 487.144C764.455 489.225 775.974 491.911 787.331 495.19C798.681 498.499 809.846 502.415 820.776 506.92C825.397 508.568 829.833 510.697 834.009 513.27C829.281 511.979 824.649 510.359 820.146 508.423C811.615 505.369 799.837 501.346 786.604 497.468C773.371 493.59 761.253 490.731 752.431 488.792C747.644 487.994 742.915 486.877 738.277 485.447Z" fill="#263238"/>
<path d="M739.537 647.344C741.548 646.941 743.594 646.746 745.645 646.762C749.571 646.471 755.339 646.326 762.319 646.374C780.67 646.519 798.989 647.944 817.141 650.64C835.151 653.427 852.95 657.444 870.412 662.661C877.149 664.697 882.53 666.539 886.214 667.944C888.182 668.493 890.071 669.291 891.836 670.319C889.825 670.016 887.845 669.53 885.923 668.865C882.142 667.75 876.665 666.199 869.927 664.406C852.299 659.653 834.417 655.898 816.366 653.16C798.308 650.538 780.119 648.919 761.883 648.313C754.855 648.071 749.183 647.925 745.257 647.877C743.337 647.893 741.421 647.714 739.537 647.344Z" fill="#263238"/>
<path d="M792.856 708.952C794.452 708.635 796.078 708.504 797.704 708.564C800.806 708.564 805.362 708.564 810.985 708.564C825.579 709.005 840.14 710.202 854.61 712.151C869.141 714.093 883.558 716.812 897.798 720.294C903.227 721.651 907.493 722.863 910.643 723.784C912.253 724.12 913.805 724.692 915.248 725.481C915.248 725.82 908.365 724.269 897.362 722.039C886.359 719.809 871.187 717.192 854.27 714.623C837.354 712.054 821.891 711.084 810.646 710.357C804.695 710.21 798.756 709.741 792.856 708.952Z" fill="#263238"/>
<path d="M811.421 738.81C814.852 738.129 818.367 737.981 821.843 738.374C830.225 738.687 838.57 739.643 846.806 741.234C855.038 742.845 863.139 745.065 871.042 747.875C874.48 748.795 877.751 750.251 880.736 752.189C880.494 752.916 865.662 747.341 846.564 743.706C827.466 740.071 811.421 739.586 811.421 738.81Z" fill="#263238"/>
<path d="M786.652 794.795C789.236 794.836 791.813 795.079 794.359 795.523C799.206 796.104 806.38 797.267 815.105 798.964C860.628 807.965 904.376 824.337 944.622 847.436C952.329 851.895 958.437 855.676 962.557 858.488C964.768 859.806 966.86 861.315 968.81 862.996C966.443 861.972 964.172 860.739 962.024 859.312C957.758 856.791 951.554 853.253 943.75 848.987C903.236 826.836 859.796 810.517 814.717 800.515C806.089 798.625 799.061 797.171 794.214 796.298C791.653 796.026 789.122 795.523 786.652 794.795Z" fill="#263238"/>
<path d="M1377.04 1663.41H707.691V1766.46H1377.04V1663.41Z" fill="#92E3A9"/>
<path d="M766.488 1766.47L837.693 2130.34H1255.28L1318.24 1766.47H766.488Z" fill="#92E3A9"/>
<path opacity="0.3" d="M766.488 1766.47L772.304 1796.08H1313.11L1318.24 1766.47H766.488Z" fill="black"/>
<path d="M1043.26 324.568L927.997 187.247C976.212 228.983 1017.55 278.057 1050.49 332.663" fill="#263238"/>
<path d="M1096.63 202.758C1086.11 231.187 1084.67 262.181 1092.51 291.462L1099.64 346.769C1112.42 299.465 1111.38 249.488 1096.63 202.758Z" fill="#92E3A9"/>
<g opacity="0.3">
<path d="M1096.63 202.758C1086.11 231.187 1084.67 262.181 1092.51 291.462L1099.64 346.769C1112.42 299.465 1111.38 249.488 1096.63 202.758Z" fill="black"/>
</g>
<path d="M946.464 223.311C956.159 241.003 969.828 255.254 983.497 270.086C997.166 284.918 1012.97 295.388 1027.41 308.379C1054.31 332.615 1074.28 363.346 1093.92 393.738L1086.16 397.858C1080.93 381.232 1065.8 369.696 1050.58 361.165C1035.36 352.634 1018.74 345.654 1006.47 333.197C997.353 322.95 989.894 311.337 984.369 298.781L946.464 223.311Z" fill="#92E3A9"/>
<g opacity="0.3">
<path d="M946.464 223.311C956.159 241.003 969.828 255.254 983.497 270.086C997.166 284.918 1012.97 295.388 1027.41 308.379C1054.31 332.615 1074.28 363.346 1093.92 393.738L1086.16 397.858C1080.93 381.232 1065.8 369.696 1050.58 361.165C1035.36 352.634 1018.74 345.654 1006.47 333.197C997.353 322.95 989.894 311.337 984.369 298.781L946.464 223.311Z" fill="black"/>
</g>
<path d="M1097.12 392.332C1097.12 376.967 1085.53 364.461 1076.56 351.955C1061.57 329.979 1051.03 305.277 1045.54 279.247C1040.1 253.231 1036.38 226.887 1034.39 200.383L1086.06 271.298C1094.5 282.931 1103.17 295.243 1104.82 309.494C1106.32 323.017 1101.24 336.347 1098.81 349.726C1096.39 363.104 1097.7 378.809 1108.51 387.34" fill="#92E3A9"/>
<path opacity="0.3" d="M1044.28 273.479C1044.28 273.479 1070.84 293.304 1079.96 309.688C1089.07 326.071 1101.96 388.697 1101.96 388.697L1097.12 392.332C1095.97 384.448 1093.42 376.832 1089.6 369.841C1083.85 360.962 1077.03 352.822 1069.29 345.605C1059.45 338.577 1049.13 296.019 1047.19 285.839C1046.56 281.647 1045.58 277.514 1044.28 273.479Z" fill="black"/>
<path d="M1077.48 342.455C1074.04 332.47 1071.13 322.242 1067.79 312.208C1063.24 298.442 1055.07 286.154 1044.14 276.63C1038.66 271.783 1032.99 267.323 1027.36 262.815L972.445 218.463C974.643 225.131 977.366 231.615 980.589 237.852L1016.07 310.269C1022.37 323.211 1029.06 336.59 1040.31 345.702C1050 353.7 1062.46 357.723 1073.27 364.267C1084.08 370.811 1093.96 381.717 1093.19 394.32L1103.32 388.891C1091.38 375.514 1082.55 359.654 1077.48 342.455Z" fill="#92E3A9"/>
<path d="M1097.02 395.532C1125.42 326.75 1126.88 250.116 1145.73 178.038C1150.58 185.357 1147.19 195.051 1144.57 203.486C1136.28 230.242 1139.19 259.034 1135.75 286.809C1130.9 325.053 1114.42 360.68 1098.04 395.58" fill="#263238"/>
<path d="M1097.41 391.654C1089.16 380.688 1078.08 372.175 1065.37 367.03C1055.14 364.038 1044.56 362.408 1033.91 362.183C1002.11 360.187 970.206 360.301 938.418 362.522C937.904 362.496 937.391 362.582 936.914 362.775C936.436 362.967 936.007 363.261 935.655 363.637C934.637 365.091 936.285 366.885 937.739 367.854C957.214 380.949 980.052 388.152 1003.52 388.6C1019.75 388.891 1035.8 385.934 1051.99 385.013C1068.18 384.092 1085.14 385.352 1099.25 393.35L1097.41 391.654Z" fill="#92E3A9"/>
<path d="M1125.57 356.899C1102.63 373.664 1083.56 395.152 1069.63 419.913C1052.52 452.486 1050.24 517.923 1046.75 554.568C1057.08 516.081 1069.29 477.401 1091.83 444.537C1124.02 397.616 1175.98 364.267 1197.65 311.627C1172.57 324.974 1148.48 340.104 1125.57 356.899Z" fill="#455A64"/>
<path d="M1045.59 233.005C1046.86 234.192 1047.97 235.545 1048.89 237.028C1050.92 239.694 1053.73 243.572 1057.22 248.468C1060.71 253.363 1064.54 259.277 1069.53 265.287C1074.53 271.298 1080.49 277.648 1086.06 284.967C1091.52 291.837 1095.49 299.757 1097.75 308.234C1099.1 315.254 1098.89 322.488 1097.12 329.416C1095.9 334.845 1094.84 339.45 1094.01 343.23C1093.72 344.888 1093.27 346.511 1092.66 348.078C1092.51 346.323 1092.64 344.556 1093.04 342.843C1093.43 339.546 1094.35 334.748 1095.37 328.931C1096.81 322.222 1096.81 315.282 1095.37 308.573C1093.08 300.476 1089.21 292.913 1083.98 286.324C1078.5 279.15 1072.54 272.801 1067.64 266.548C1062.75 260.295 1058.97 254.187 1055.62 249.243C1052.28 244.299 1049.76 240.567 1048.11 237.852C1047.05 236.364 1046.2 234.732 1045.59 233.005Z" fill="#263238"/>
<path d="M1379.37 1766.47C1379.37 1767.14 1228.72 1767.73 1042.92 1767.73C857.13 1767.73 706.479 1767.14 706.479 1766.47C706.479 1765.79 857.082 1765.21 1042.92 1765.21C1228.77 1765.21 1379.37 1765.74 1379.37 1766.47Z" fill="#263238"/>
</svg>
