<svg width="313" height="124" viewBox="0 0 313 124" fill="none" xmlns="http://www.w3.org/2000/svg">
<path d="M84.7853 33.2576C85.3031 47.8677 81.6564 53.4578 78.0515 55.7863C74.5682 58.0386 69.7206 58.1542 68.1465 61.8724C67.8167 62.6548 66.7165 64.9937 66.718 65.8C65.5503 63.9413 65.5141 60.2017 65.8069 58.1754C66.0931 56.0177 68.0883 54.8736 69.7182 53.6241C71.6407 52.199 73.4076 50.5043 74.8383 48.5792C76.7549 46.0252 78.1109 43.1198 78.9702 40.1157L78.838 40.0716C77.6998 42.9667 76.0914 45.6623 74.0313 47.9132C72.495 49.6053 70.7021 51.0201 68.7456 52.1969C66.4264 53.5873 64.1924 54.7657 63.4535 57.6618C62.7525 60.54 63.7719 63.6332 65.2848 66.4463C64.3933 65.6115 63.4986 64.5742 62.7214 63.305C62.7214 63.305 59.6038 58.2 60.8527 51.2779C62.3883 42.7868 71.9686 35.4863 84.7798 33.2556L84.7853 33.2576Z" fill="#8EA859"/>
<path d="M1.38321 33.0005C11.7039 56.2657 21.6676 62.2336 29.0884 63.135C36.2586 64.0067 43.9333 60.4979 49.2252 65.1113C50.3407 66.0859 53.8428 68.9078 54.4495 70.1696C54.859 66.372 52.0693 60.4903 50.0699 57.5411C47.9756 54.3819 43.9801 54.1125 40.4796 53.4C36.384 52.6354 32.332 51.3261 28.6268 49.4074C23.6823 46.8695 19.3436 43.3584 15.7141 39.3075L15.8846 39.1386C19.8731 42.8016 24.4385 45.7926 29.3805 47.7472C33.0726 49.227 36.9544 50.0789 40.9183 50.4281C45.6065 50.8379 50.0022 50.9827 53.3654 54.951C56.6555 58.9216 57.4145 64.5405 57.1906 70.0914C57.9513 68.1033 58.5576 65.7987 58.8078 63.2221C58.8078 63.2221 59.8023 52.8539 52.57 42.9769C43.6886 30.8614 23.1348 26.7312 1.38321 33.0005Z" fill="#98BD4A"/>
<path d="M83.0184 55.6352C82.9188 56.1509 82.8098 56.7099 82.6893 57.2791C82.2304 59.4627 81.6455 61.618 80.9639 63.7427C78.8044 69.7941 74.9106 75.2897 69.8387 78.6336C58.6479 86.1269 43.9448 80.1072 35.2347 70.6128C34.6967 70.0277 33.7032 70.2933 33.5535 71.076C33.0811 73.5211 33.1047 76.0939 33.5687 78.5328C36.3591 93.8916 53.8181 103.743 68.8133 99.4591C87.7585 94.7233 97.4006 69.342 83.0218 55.639L83.0184 55.6352Z" fill="#AE9158"/>
<path d="M127.68 39.1L125.96 65.5L122.36 66.1L109.4 44.66H109.08L109.2 65.5L105.2 65.7L106.28 39.5L115.96 38.9L122.96 58.86H123.28L123.68 39.3L127.68 39.1ZM135.095 66.42C134.642 66.42 134.309 66.4067 134.095 66.38C133.189 65.7667 132.455 64.86 131.895 63.66C131.362 62.4333 131.095 61.1667 131.095 59.86C131.095 58.1533 131.735 56.9133 133.015 56.14C134.322 55.3667 136.709 54.98 140.175 54.98C141.455 54.98 142.789 55.0733 144.175 55.26L144.095 54.38C143.989 53.3133 143.482 52.4733 142.575 51.86C141.669 51.22 140.509 50.9 139.095 50.9C137.682 50.9 136.269 51.34 134.855 52.22L133.095 46.42C135.389 45.4867 138.002 45.02 140.935 45.02C143.869 45.02 146.189 45.6867 147.895 47.02C149.602 48.3267 150.455 50.38 150.455 53.18C150.455 53.82 150.429 54.3267 150.375 54.7L149.255 65.74L145.295 66.1L144.695 60.3H144.375C143.469 62.22 142.215 63.7267 140.615 64.82C139.015 65.8867 137.175 66.42 135.095 66.42ZM144.335 56.94L142.215 56.9C140.455 56.9 139.015 56.9933 137.895 57.18C137.522 57.9267 137.335 58.5933 137.335 59.18C137.335 59.7667 137.415 60.3267 137.575 60.86C137.735 61.3933 137.909 61.7533 138.095 61.94C141.295 61.4333 143.375 59.7667 144.335 56.94ZM171.418 44.58C171.925 44.58 172.418 44.66 172.898 44.82C174.258 46.4733 175.192 49.34 175.698 53.42C176.205 57.4733 176.458 61.5 176.458 65.5L169.258 66.1C169.258 59.9667 169.032 54.38 168.578 49.34C165.032 50.6467 162.672 56.1133 161.498 65.74L157.538 66.1L155.498 46.26L164.058 44.94L163.178 51.98H163.538C164.605 49.66 165.818 47.8467 167.178 46.54C168.538 45.2333 169.952 44.58 171.418 44.58ZM188.785 43.94C195.238 46.5267 198.465 49.74 198.465 53.58C198.465 55.58 197.891 57.0333 196.745 57.94C195.625 58.82 193.531 59.26 190.465 59.26C188.518 59.26 186.918 59.1133 185.665 58.82C185.158 60.0733 184.905 61.38 184.905 62.74C186.105 62.9 187.465 62.98 188.985 62.98C191.758 62.98 194.371 62.54 196.825 61.66L198.025 65.54C196.078 66.1533 193.891 66.46 191.465 66.46C187.145 66.46 183.971 65.6733 181.945 64.1C181.518 62.2067 181.305 60.42 181.305 58.74C181.305 55.38 182.038 52.3533 183.505 49.66C184.998 46.9667 186.758 45.06 188.785 43.94ZM186.465 56.94C186.811 56.9667 187.678 56.98 189.065 56.98C190.478 56.98 192.091 56.7933 193.905 56.42C193.985 55.9133 194.025 55.4067 194.025 54.9C194.025 53.3 193.585 51.7667 192.705 50.3C190.065 52.06 187.985 54.2733 186.465 56.94ZM218.392 44.58C218.899 44.58 219.392 44.66 219.872 44.82C220.912 46.1 221.752 48.42 222.392 51.78H222.712C223.672 49.54 224.779 47.78 226.032 46.5C227.312 45.22 228.632 44.58 229.992 44.58C230.499 44.58 230.992 44.66 231.472 44.82C232.832 46.4733 233.765 49.3667 234.272 53.5C234.779 57.6333 235.032 61.7133 235.032 65.74L227.832 66.1C227.832 59.8067 227.632 54.22 227.232 49.34C224.032 50.62 221.912 56.0867 220.872 65.74L216.232 66.1C216.232 59.8067 216.032 54.22 215.632 49.34C214.432 49.82 213.259 51.1 212.112 53.18C210.992 55.2333 210.165 58.4467 209.632 62.82L209.272 65.74L205.312 66.1L203.272 46.26L211.832 44.94L211.072 51.18H211.352C213.405 46.78 215.752 44.58 218.392 44.58Z" fill="#AE9158"/>
<path d="M258.899 46.14L252.699 52.62L261.379 65.58L253.779 66.1L248.779 56.74L247.339 58.1L246.659 65.74L242.699 66.1L240.659 38.18L249.219 36.86L247.699 54.14L256.219 44.06L258.899 46.14ZM275.886 60.82C276.872 59.54 277.552 58.1533 277.926 56.66C278.299 55.1667 278.486 53.8733 278.486 52.78C278.486 51.66 278.326 49.5 278.006 46.3L286.566 44.98L284.006 65.74L280.046 66.1L279.246 58.5H278.966C276.992 63.78 273.846 66.42 269.526 66.42C268.886 66.42 268.352 66.3133 267.926 66.1C266.566 64.4467 265.632 61.6467 265.126 57.7C264.619 53.7267 264.366 49.7667 264.366 45.82L272.366 45.22C271.886 49.8867 271.646 53.38 271.646 55.7C271.646 58.02 271.846 60.5133 272.246 63.18C273.712 62.86 274.926 62.0733 275.886 60.82ZM302.143 67.82C301.209 70.14 300.236 71.74 299.223 72.62C298.236 73.5267 296.916 73.98 295.263 73.98C293.636 73.98 292.076 73.38 290.583 72.18L291.783 70.14C292.663 70.46 293.623 70.62 294.663 70.62C295.729 70.62 296.689 70.2733 297.543 69.58C298.396 68.8867 298.943 67.8333 299.183 66.42L290.903 46.3L299.463 44.98L302.103 60.34H302.423L307.583 45.1L310.823 45.98L302.143 67.82Z" fill="#98BD4A"/>
<path d="M103.952 76.46C105.019 76.4173 105.541 76.396 105.52 76.396H105.616V78.636V80.876C105.627 80.876 105.685 80.8493 105.792 80.796C106.56 80.444 107.413 80.2787 108.352 80.3C108.757 80.3107 109.136 80.38 109.488 80.508C110.064 80.7213 110.523 81.0573 110.864 81.516C111.323 82.1453 111.568 82.9027 111.6 83.788C111.643 85.132 111.2 86.156 110.272 86.86C110.027 87.0413 109.755 87.1907 109.456 87.308C109.083 87.4573 108.688 87.548 108.272 87.58C107.92 87.6227 107.589 87.612 107.28 87.548C106.832 87.484 106.421 87.3613 106.048 87.18C105.717 87.02 105.472 86.8653 105.312 86.716L105.264 86.684L104.96 87.084L104.64 87.484L104.064 87.5H103.488V82.764C103.488 79.6067 103.477 78.0013 103.456 77.948C103.424 77.8413 103.355 77.772 103.248 77.74C103.099 77.6973 102.88 77.676 102.592 77.676H102.384V77.1V76.524H102.432C102.379 76.524 102.885 76.5027 103.952 76.46ZM108 81.308C107.712 81.2547 107.365 81.2653 106.96 81.34C106.491 81.4467 106.101 81.6387 105.792 81.916L105.712 81.98V83.884V85.772L105.904 85.964C106.171 86.2307 106.448 86.412 106.736 86.508C107.312 86.7 107.856 86.668 108.368 86.412C108.411 86.3907 108.453 86.364 108.496 86.332C108.699 86.172 108.832 86.0227 108.896 85.884C109.045 85.6173 109.131 85.0627 109.152 84.22C109.152 84.1987 109.152 84.172 109.152 84.14C109.163 83.02 109.088 82.2947 108.928 81.964C108.885 81.8787 108.821 81.7933 108.736 81.708C108.64 81.612 108.56 81.5427 108.496 81.5C108.304 81.404 108.139 81.34 108 81.308ZM112.635 80.972V80.396H112.763L113.739 80.428C114.315 80.4387 114.928 80.4387 115.579 80.428L116.699 80.396H116.843V80.972V81.548H116.491C116.267 81.548 116.155 81.5587 116.155 81.58L116.891 83.228C117.36 84.284 117.605 84.812 117.627 84.812L119.051 81.58C119.051 81.5587 118.939 81.548 118.715 81.548H118.363V80.972V80.396H118.475L119.339 80.428C119.829 80.4387 120.283 80.4387 120.699 80.428C121.157 80.4067 121.392 80.396 121.403 80.396H121.499V80.972V81.548H120.907H120.315L118.779 85.068C117.669 87.5427 117.115 88.7853 117.115 88.796C116.699 89.6173 116.107 90.1773 115.339 90.476C114.752 90.732 114.213 90.78 113.723 90.62C113.179 90.428 112.821 90.06 112.651 89.516C112.587 89.324 112.56 89.132 112.571 88.94C112.581 88.6627 112.683 88.4227 112.875 88.22C113.013 88.092 113.173 88.0013 113.355 87.948C113.451 87.916 113.563 87.9 113.691 87.9C113.819 87.9 113.931 87.916 114.027 87.948C114.208 88.0013 114.368 88.092 114.507 88.22C114.677 88.412 114.779 88.6413 114.811 88.908V89.02H114.267H113.723V89.116C113.755 89.4253 113.893 89.6227 114.139 89.708C114.341 89.772 114.619 89.7293 114.971 89.58C115.397 89.3773 115.707 89.0787 115.899 88.684L116.427 87.5C116.427 87.4893 115.989 86.492 115.115 84.508L113.819 81.548H113.227H112.635V80.972Z" fill="#8EA859"/>
<path d="M140.656 84.788C140.656 85.268 140.632 85.756 140.584 86.252C140.536 86.732 140.44 87.204 140.296 87.668C140.152 88.116 139.936 88.548 139.648 88.964C139.36 89.364 138.968 89.716 138.472 90.02C138.232 90.18 137.944 90.316 137.608 90.428C137.288 90.524 136.944 90.604 136.576 90.668C136.224 90.748 135.872 90.796 135.52 90.812C135.168 90.844 134.84 90.852 134.536 90.836C133.096 90.788 131.928 90.444 131.032 89.804C130.152 89.148 129.472 88.34 128.992 87.38C128.528 86.42 128.224 85.38 128.08 84.26C127.952 83.124 127.928 82.044 128.008 81.02C128.056 80.412 128.16 79.756 128.32 79.052C128.496 78.348 128.744 77.668 129.064 77.012C129.4 76.356 129.808 75.764 130.288 75.236C130.784 74.708 131.368 74.308 132.04 74.036C132.664 73.78 133.344 73.62 134.08 73.556C134.832 73.476 135.568 73.5 136.288 73.628C137.024 73.756 137.704 73.988 138.328 74.324C138.968 74.66 139.472 75.108 139.84 75.668C140.096 76.084 140.296 76.588 140.44 77.18C140.584 77.772 140.608 78.34 140.512 78.884C140.432 79.364 140.264 79.7 140.008 79.892C139.752 80.068 139.472 80.14 139.168 80.108C138.864 80.06 138.568 79.932 138.28 79.724C138.008 79.5 137.824 79.22 137.728 78.884C137.616 78.516 137.48 78.18 137.32 77.876C137.16 77.556 136.912 77.292 136.576 77.084C136.192 76.844 135.784 76.708 135.352 76.676C134.936 76.644 134.528 76.692 134.128 76.82C133.744 76.948 133.376 77.148 133.024 77.42C132.688 77.692 132.408 78.004 132.184 78.356C131.912 78.756 131.704 79.196 131.56 79.676C131.416 80.14 131.312 80.628 131.248 81.14C131.184 81.636 131.16 82.14 131.176 82.652C131.208 83.148 131.272 83.628 131.368 84.092C131.544 84.876 131.816 85.612 132.184 86.3C132.328 86.556 132.52 86.788 132.76 86.996C133.016 87.188 133.296 87.348 133.6 87.476C133.904 87.588 134.224 87.66 134.56 87.692C134.896 87.724 135.216 87.7 135.52 87.62C135.952 87.508 136.304 87.364 136.576 87.188C136.848 86.996 137.064 86.772 137.224 86.516C137.384 86.26 137.488 85.98 137.536 85.676C137.6 85.372 137.632 85.052 137.632 84.716V84.692C137.424 84.692 137.24 84.692 137.08 84.692C136.92 84.676 136.8 84.668 136.72 84.668C136.368 84.668 136.024 84.604 135.688 84.476C135.4 84.38 135.184 84.228 135.04 84.02C134.88 83.844 134.8 83.628 134.8 83.372C134.8 83.276 134.8 83.188 134.8 83.108C134.816 83.012 134.832 82.916 134.848 82.82C134.896 82.692 135 82.532 135.16 82.34C135.256 82.26 135.408 82.196 135.616 82.148C135.712 82.116 135.808 82.092 135.904 82.076C136 82.044 136.112 82.02 136.24 82.004C136.336 81.988 136.44 81.98 136.552 81.98C136.664 81.98 136.776 81.98 136.888 81.98H139.072C139.248 81.964 139.448 81.988 139.672 82.052C139.912 82.1 140.096 82.18 140.224 82.292C140.272 82.356 140.32 82.42 140.368 82.484C140.416 82.548 140.456 82.62 140.488 82.7C140.552 82.876 140.592 83.052 140.608 83.228C140.624 83.324 140.632 83.428 140.632 83.54C140.648 83.636 140.656 83.724 140.656 83.804V84.788ZM155.017 83.516C155.097 83.74 155.153 83.996 155.185 84.284C155.233 84.556 155.257 84.836 155.257 85.124C155.257 85.412 155.233 85.7 155.185 85.988C155.153 86.26 155.105 86.5 155.041 86.708C154.785 87.604 154.273 88.356 153.505 88.964C152.737 89.556 151.857 89.988 150.865 90.26C149.889 90.532 148.873 90.628 147.817 90.548C146.777 90.468 145.849 90.204 145.033 89.756C144.521 89.468 144.081 89.116 143.713 88.7C143.345 88.284 143.033 87.82 142.777 87.308C142.681 87.132 142.617 86.932 142.585 86.708C142.569 86.468 142.593 86.244 142.657 86.036C142.721 85.812 142.825 85.62 142.969 85.46C143.113 85.284 143.313 85.164 143.569 85.1C143.729 85.068 143.905 85.052 144.097 85.052C144.305 85.052 144.505 85.084 144.697 85.148C144.889 85.196 145.065 85.284 145.225 85.412C145.385 85.524 145.513 85.684 145.609 85.892C145.785 86.228 146.033 86.54 146.353 86.828C146.689 87.1 147.041 87.324 147.409 87.5C147.937 87.676 148.465 87.748 148.993 87.716C149.537 87.684 150.025 87.564 150.457 87.356C150.905 87.148 151.265 86.868 151.537 86.516C151.809 86.148 151.945 85.732 151.945 85.268C151.945 84.884 151.889 84.572 151.777 84.332C151.665 84.076 151.505 83.868 151.297 83.708C151.105 83.532 150.865 83.388 150.577 83.276C150.305 83.164 150.001 83.068 149.665 82.988C149.281 82.908 148.889 82.852 148.489 82.82C148.105 82.788 147.713 82.748 147.313 82.7C146.913 82.652 146.521 82.588 146.137 82.508C145.753 82.428 145.377 82.308 145.009 82.148C144.273 81.844 143.713 81.38 143.329 80.756C142.945 80.132 142.713 79.46 142.633 78.74C142.569 78.02 142.657 77.308 142.897 76.604C143.137 75.884 143.521 75.268 144.049 74.756C144.561 74.292 145.169 73.964 145.873 73.772C146.593 73.564 147.385 73.444 148.249 73.412C148.729 73.396 149.209 73.412 149.689 73.46C150.185 73.508 150.657 73.588 151.105 73.7C151.569 73.812 151.993 73.956 152.377 74.132C152.777 74.308 153.121 74.516 153.409 74.756C153.617 74.916 153.825 75.132 154.033 75.404C154.241 75.66 154.401 75.94 154.513 76.244C154.625 76.532 154.657 76.812 154.609 77.084C154.577 77.356 154.409 77.588 154.105 77.78C153.849 77.94 153.601 78.012 153.361 77.996C153.137 77.964 152.921 77.892 152.713 77.78C152.505 77.652 152.305 77.508 152.113 77.348C151.921 77.188 151.745 77.044 151.585 76.916C151.153 76.596 150.617 76.38 149.977 76.268C149.337 76.156 148.737 76.132 148.177 76.196C147.825 76.244 147.497 76.324 147.193 76.436C146.889 76.548 146.625 76.7 146.401 76.892C146.193 77.084 146.025 77.324 145.897 77.612C145.785 77.884 145.745 78.196 145.777 78.548C145.793 78.804 145.865 79.02 145.993 79.196C146.137 79.372 146.305 79.516 146.497 79.628C146.705 79.74 146.929 79.828 147.169 79.892C147.409 79.956 147.649 80.004 147.889 80.036C148.609 80.132 149.329 80.204 150.049 80.252C150.769 80.3 151.473 80.46 152.161 80.732C152.865 81.004 153.465 81.372 153.961 81.836C154.457 82.3 154.809 82.86 155.017 83.516ZM157.931 87.956L157.955 86.06L157.979 82.532C157.995 82.02 158.003 81.492 158.003 80.948C158.003 80.404 158.003 79.844 158.003 79.268C158.003 78.692 158.003 78.18 158.003 77.732C158.003 77.284 158.019 76.78 158.051 76.22V76.124C158.067 75.964 158.075 75.804 158.075 75.644C158.091 75.468 158.099 75.292 158.099 75.116C158.115 74.828 158.203 74.516 158.363 74.18C158.475 73.956 158.643 73.764 158.867 73.604C159.123 73.476 159.371 73.412 159.611 73.412C159.739 73.412 159.851 73.42 159.947 73.436C160.059 73.436 160.163 73.444 160.259 73.46C160.467 73.492 160.651 73.588 160.811 73.748C160.907 73.828 160.995 73.956 161.075 74.132C161.107 74.228 161.131 74.324 161.147 74.42C161.179 74.5 161.203 74.588 161.219 74.684C161.235 74.796 161.243 74.9 161.243 74.996C161.259 75.092 161.267 75.188 161.267 75.284C161.267 75.396 161.259 75.5 161.243 75.596C161.243 75.676 161.243 75.764 161.243 75.86V76.268L161.099 88.724V88.964C161.099 89.012 161.091 89.076 161.075 89.156C161.075 89.22 161.067 89.3 161.051 89.396C161.019 89.476 160.987 89.564 160.955 89.66C160.939 89.74 160.915 89.828 160.883 89.924C160.835 90.004 160.779 90.084 160.715 90.164C160.667 90.228 160.603 90.292 160.523 90.356C160.395 90.484 160.187 90.572 159.899 90.62C159.467 90.716 159.059 90.676 158.675 90.5C158.483 90.372 158.347 90.212 158.267 90.02C158.219 89.972 158.195 89.924 158.195 89.876C158.179 89.844 158.163 89.82 158.147 89.804C158.131 89.788 158.115 89.764 158.099 89.732C158.067 89.652 158.043 89.572 158.027 89.492C158.011 89.396 158.003 89.3 158.003 89.204C157.987 89.124 157.971 89.044 157.955 88.964C157.955 88.884 157.947 88.804 157.931 88.724C157.915 88.596 157.915 88.46 157.931 88.316V87.956Z" fill="#AE9158"/>
</svg>
