<svg width="112" height="124" viewBox="0 0 112 124" fill="none" xmlns="http://www.w3.org/2000/svg">
<path d="M84.7853 33.2576C85.3031 47.8677 81.6564 53.4578 78.0515 55.7863C74.5682 58.0386 69.7206 58.1542 68.1465 61.8724C67.8167 62.6548 66.7165 64.9937 66.718 65.8C65.5503 63.9413 65.5141 60.2017 65.8069 58.1754C66.0931 56.0177 68.0883 54.8736 69.7182 53.6241C71.6407 52.199 73.4076 50.5043 74.8383 48.5792C76.7549 46.0252 78.1109 43.1198 78.9702 40.1157L78.838 40.0716C77.6998 42.9667 76.0914 45.6623 74.0313 47.9132C72.495 49.6053 70.7021 51.0201 68.7456 52.1969C66.4264 53.5873 64.1924 54.7657 63.4535 57.6618C62.7525 60.54 63.7719 63.6332 65.2848 66.4463C64.3933 65.6115 63.4986 64.5742 62.7214 63.305C62.7214 63.305 59.6038 58.2 60.8527 51.2779C62.3883 42.7868 71.9686 35.4863 84.7798 33.2556L84.7853 33.2576Z" fill="#8EA859"/>
<path d="M1.38321 33.0005C11.7039 56.2657 21.6676 62.2336 29.0884 63.135C36.2586 64.0067 43.9333 60.4979 49.2252 65.1113C50.3407 66.0859 53.8428 68.9078 54.4495 70.1696C54.859 66.372 52.0693 60.4903 50.0699 57.5411C47.9756 54.3819 43.9801 54.1125 40.4796 53.4C36.384 52.6354 32.332 51.3261 28.6268 49.4074C23.6823 46.8695 19.3436 43.3584 15.7141 39.3075L15.8846 39.1386C19.8731 42.8016 24.4385 45.7926 29.3805 47.7472C33.0726 49.227 36.9544 50.0789 40.9183 50.4281C45.6065 50.8379 50.0022 50.9827 53.3654 54.951C56.6555 58.9216 57.4145 64.5405 57.1906 70.0914C57.9513 68.1033 58.5576 65.7987 58.8078 63.2221C58.8078 63.2221 59.8023 52.8539 52.57 42.9769C43.6886 30.8614 23.1348 26.7312 1.38321 33.0005Z" fill="#98BD4A"/>
<path d="M83.0184 55.6352C82.9188 56.1509 82.8098 56.7099 82.6893 57.2791C82.2304 59.4627 81.6455 61.618 80.9639 63.7427C78.8044 69.7941 74.9106 75.2897 69.8387 78.6336C58.6479 86.1269 43.9448 80.1072 35.2347 70.6128C34.6967 70.0277 33.7032 70.2933 33.5535 71.076C33.0811 73.5211 33.1047 76.0939 33.5687 78.5328C36.3591 93.8916 53.8181 103.743 68.8133 99.4591C87.7585 94.7233 97.4006 69.342 83.0218 55.639L83.0184 55.6352Z" fill="#AE9158"/>
</svg>
