<svg width="211" height="74" viewBox="0 0 211 74" fill="none" xmlns="http://www.w3.org/2000/svg">
<path d="M25.68 14.1L23.96 40.5L20.36 41.1L7.4 19.66H7.08L7.2 40.5L3.2 40.7L4.28 14.5L13.96 13.9L20.96 33.86H21.28L21.68 14.3L25.68 14.1ZM33.0953 41.42C32.642 41.42 32.3086 41.4067 32.0953 41.38C31.1886 40.7667 30.4553 39.86 29.8953 38.66C29.362 37.4333 29.0953 36.1667 29.0953 34.86C29.0953 33.1533 29.7353 31.9133 31.0153 31.14C32.322 30.3667 34.7086 29.98 38.1753 29.98C39.4553 29.98 40.7886 30.0733 42.1753 30.26L42.0953 29.38C41.9886 28.3133 41.482 27.4733 40.5753 26.86C39.6686 26.22 38.5086 25.9 37.0953 25.9C35.682 25.9 34.2686 26.34 32.8553 27.22L31.0953 21.42C33.3886 20.4867 36.002 20.02 38.9353 20.02C41.8686 20.02 44.1886 20.6867 45.8953 22.02C47.602 23.3267 48.4553 25.38 48.4553 28.18C48.4553 28.82 48.4286 29.3267 48.3753 29.7L47.2553 40.74L43.2953 41.1L42.6953 35.3H42.3753C41.4686 37.22 40.2153 38.7267 38.6153 39.82C37.0153 40.8867 35.1753 41.42 33.0953 41.42ZM42.3353 31.94L40.2153 31.9C38.4553 31.9 37.0153 31.9933 35.8953 32.18C35.522 32.9267 35.3353 33.5933 35.3353 34.18C35.3353 34.7667 35.4153 35.3267 35.5753 35.86C35.7353 36.3933 35.9086 36.7533 36.0953 36.94C39.2953 36.4333 41.3753 34.7667 42.3353 31.94ZM69.4184 19.58C69.9251 19.58 70.4184 19.66 70.8984 19.82C72.2584 21.4733 73.1918 24.34 73.6984 28.42C74.2051 32.4733 74.4584 36.5 74.4584 40.5L67.2584 41.1C67.2584 34.9667 67.0318 29.38 66.5784 24.34C63.0318 25.6467 60.6718 31.1133 59.4984 40.74L55.5384 41.1L53.4984 21.26L62.0584 19.94L61.1784 26.98H61.5384C62.6051 24.66 63.8184 22.8467 65.1784 21.54C66.5384 20.2333 67.9518 19.58 69.4184 19.58ZM86.7847 18.94C93.238 21.5267 96.4647 24.74 96.4647 28.58C96.4647 30.58 95.8914 32.0333 94.7447 32.94C93.6247 33.82 91.5314 34.26 88.4647 34.26C86.518 34.26 84.918 34.1133 83.6647 33.82C83.158 35.0733 82.9047 36.38 82.9047 37.74C84.1047 37.9 85.4647 37.98 86.9847 37.98C89.758 37.98 92.3714 37.54 94.8247 36.66L96.0247 40.54C94.078 41.1533 91.8914 41.46 89.4647 41.46C85.1447 41.46 81.9714 40.6733 79.9447 39.1C79.518 37.2067 79.3047 35.42 79.3047 33.74C79.3047 30.38 80.038 27.3533 81.5047 24.66C82.998 21.9667 84.758 20.06 86.7847 18.94ZM84.4647 31.94C84.8114 31.9667 85.678 31.98 87.0647 31.98C88.478 31.98 90.0914 31.7933 91.9047 31.42C91.9847 30.9133 92.0247 30.4067 92.0247 29.9C92.0247 28.3 91.5847 26.7667 90.7047 25.3C88.0647 27.06 85.9847 29.2733 84.4647 31.94ZM116.392 19.58C116.899 19.58 117.392 19.66 117.872 19.82C118.912 21.1 119.752 23.42 120.392 26.78H120.712C121.672 24.54 122.779 22.78 124.032 21.5C125.312 20.22 126.632 19.58 127.992 19.58C128.499 19.58 128.992 19.66 129.472 19.82C130.832 21.4733 131.765 24.3667 132.272 28.5C132.779 32.6333 133.032 36.7133 133.032 40.74L125.832 41.1C125.832 34.8067 125.632 29.22 125.232 24.34C122.032 25.62 119.912 31.0867 118.872 40.74L114.232 41.1C114.232 34.8067 114.032 29.22 113.632 24.34C112.432 24.82 111.259 26.1 110.112 28.18C108.992 30.2333 108.165 33.4467 107.632 37.82L107.272 40.74L103.312 41.1L101.272 21.26L109.832 19.94L109.072 26.18H109.352C111.405 21.78 113.752 19.58 116.392 19.58Z" fill="#AE9158"/>
<path d="M156.899 21.14L150.699 27.62L159.379 40.58L151.779 41.1L146.779 31.74L145.339 33.1L144.659 40.74L140.699 41.1L138.659 13.18L147.219 11.86L145.699 29.14L154.219 19.06L156.899 21.14ZM173.886 35.82C174.872 34.54 175.552 33.1533 175.926 31.66C176.299 30.1667 176.486 28.8733 176.486 27.78C176.486 26.66 176.326 24.5 176.006 21.3L184.566 19.98L182.006 40.74L178.046 41.1L177.246 33.5H176.966C174.992 38.78 171.846 41.42 167.526 41.42C166.886 41.42 166.352 41.3133 165.926 41.1C164.566 39.4467 163.632 36.6467 163.126 32.7C162.619 28.7267 162.366 24.7667 162.366 20.82L170.366 20.22C169.886 24.8867 169.646 28.38 169.646 30.7C169.646 33.02 169.846 35.5133 170.246 38.18C171.712 37.86 172.926 37.0733 173.886 35.82ZM200.143 42.82C199.209 45.14 198.236 46.74 197.223 47.62C196.236 48.5267 194.916 48.98 193.263 48.98C191.636 48.98 190.076 48.38 188.583 47.18L189.783 45.14C190.663 45.46 191.623 45.62 192.663 45.62C193.729 45.62 194.689 45.2733 195.543 44.58C196.396 43.8867 196.943 42.8333 197.183 41.42L188.903 21.3L197.463 19.98L200.103 35.34H200.423L205.583 20.1L208.823 20.98L200.143 42.82Z" fill="#98BD4A"/>
<path d="M1.952 51.46C3.01867 51.4173 3.54133 51.396 3.52 51.396H3.616V53.636V55.876C3.62667 55.876 3.68533 55.8493 3.792 55.796C4.56 55.444 5.41333 55.2787 6.352 55.3C6.75733 55.3107 7.136 55.38 7.488 55.508C8.064 55.7213 8.52267 56.0573 8.864 56.516C9.32267 57.1453 9.568 57.9027 9.6 58.788C9.64267 60.132 9.2 61.156 8.272 61.86C8.02667 62.0413 7.75467 62.1907 7.456 62.308C7.08267 62.4573 6.688 62.548 6.272 62.58C5.92 62.6227 5.58933 62.612 5.28 62.548C4.832 62.484 4.42133 62.3613 4.048 62.18C3.71733 62.02 3.472 61.8653 3.312 61.716L3.264 61.684L2.96 62.084L2.64 62.484L2.064 62.5H1.488V57.764C1.488 54.6067 1.47733 53.0013 1.456 52.948C1.424 52.8413 1.35467 52.772 1.248 52.74C1.09867 52.6973 0.88 52.676 0.592 52.676H0.384V52.1V51.524H0.432C0.378667 51.524 0.885333 51.5027 1.952 51.46ZM6 56.308C5.712 56.2547 5.36533 56.2653 4.96 56.34C4.49067 56.4467 4.10133 56.6387 3.792 56.916L3.712 56.98V58.884V60.772L3.904 60.964C4.17067 61.2307 4.448 61.412 4.736 61.508C5.312 61.7 5.856 61.668 6.368 61.412C6.41067 61.3907 6.45333 61.364 6.496 61.332C6.69867 61.172 6.832 61.0227 6.896 60.884C7.04533 60.6173 7.13067 60.0627 7.152 59.22C7.152 59.1987 7.152 59.172 7.152 59.14C7.16267 58.02 7.088 57.2947 6.928 56.964C6.88533 56.8787 6.82133 56.7933 6.736 56.708C6.64 56.612 6.56 56.5427 6.496 56.5C6.304 56.404 6.13867 56.34 6 56.308ZM10.6348 55.972V55.396H10.7628L11.7388 55.428C12.3148 55.4387 12.9281 55.4387 13.5788 55.428L14.6988 55.396H14.8428V55.972V56.548H14.4908C14.2668 56.548 14.1548 56.5587 14.1548 56.58L14.8908 58.228C15.3601 59.284 15.6054 59.812 15.6268 59.812L17.0508 56.58C17.0508 56.5587 16.9388 56.548 16.7148 56.548H16.3628V55.972V55.396H16.4748L17.3388 55.428C17.8294 55.4387 18.2828 55.4387 18.6988 55.428C19.1574 55.4067 19.3921 55.396 19.4028 55.396H19.4988V55.972V56.548H18.9068H18.3148L16.7788 60.068C15.6694 62.5427 15.1148 63.7853 15.1148 63.796C14.6988 64.6173 14.1068 65.1773 13.3388 65.476C12.7521 65.732 12.2134 65.78 11.7228 65.62C11.1788 65.428 10.8214 65.06 10.6508 64.516C10.5868 64.324 10.5601 64.132 10.5708 63.94C10.5814 63.6627 10.6828 63.4227 10.8748 63.22C11.0134 63.092 11.1734 63.0013 11.3548 62.948C11.4508 62.916 11.5628 62.9 11.6908 62.9C11.8188 62.9 11.9308 62.916 12.0268 62.948C12.2081 63.0013 12.3681 63.092 12.5068 63.22C12.6774 63.412 12.7788 63.6413 12.8108 63.908V64.02H12.2668H11.7228V64.116C11.7548 64.4253 11.8934 64.6227 12.1388 64.708C12.3414 64.772 12.6188 64.7293 12.9708 64.58C13.3974 64.3773 13.7068 64.0787 13.8988 63.684L14.4268 62.5C14.4268 62.4893 13.9894 61.492 13.1148 59.508L11.8188 56.548H11.2268H10.6348V55.972Z" fill="#8EA859"/>
<path d="M38.656 59.788C38.656 60.268 38.632 60.756 38.584 61.252C38.536 61.732 38.44 62.204 38.296 62.668C38.152 63.116 37.936 63.548 37.648 63.964C37.36 64.364 36.968 64.716 36.472 65.02C36.232 65.18 35.944 65.316 35.608 65.428C35.288 65.524 34.944 65.604 34.576 65.668C34.224 65.748 33.872 65.796 33.52 65.812C33.168 65.844 32.84 65.852 32.536 65.836C31.096 65.788 29.928 65.444 29.032 64.804C28.152 64.148 27.472 63.34 26.992 62.38C26.528 61.42 26.224 60.38 26.08 59.26C25.952 58.124 25.928 57.044 26.008 56.02C26.056 55.412 26.16 54.756 26.32 54.052C26.496 53.348 26.744 52.668 27.064 52.012C27.4 51.356 27.808 50.764 28.288 50.236C28.784 49.708 29.368 49.308 30.04 49.036C30.664 48.78 31.344 48.62 32.08 48.556C32.832 48.476 33.568 48.5 34.288 48.628C35.024 48.756 35.704 48.988 36.328 49.324C36.968 49.66 37.472 50.108 37.84 50.668C38.096 51.084 38.296 51.588 38.44 52.18C38.584 52.772 38.608 53.34 38.512 53.884C38.432 54.364 38.264 54.7 38.008 54.892C37.752 55.068 37.472 55.14 37.168 55.108C36.864 55.06 36.568 54.932 36.28 54.724C36.008 54.5 35.824 54.22 35.728 53.884C35.616 53.516 35.48 53.18 35.32 52.876C35.16 52.556 34.912 52.292 34.576 52.084C34.192 51.844 33.784 51.708 33.352 51.676C32.936 51.644 32.528 51.692 32.128 51.82C31.744 51.948 31.376 52.148 31.024 52.42C30.688 52.692 30.408 53.004 30.184 53.356C29.912 53.756 29.704 54.196 29.56 54.676C29.416 55.14 29.312 55.628 29.248 56.14C29.184 56.636 29.16 57.14 29.176 57.652C29.208 58.148 29.272 58.628 29.368 59.092C29.544 59.876 29.816 60.612 30.184 61.3C30.328 61.556 30.52 61.788 30.76 61.996C31.016 62.188 31.296 62.348 31.6 62.476C31.904 62.588 32.224 62.66 32.56 62.692C32.896 62.724 33.216 62.7 33.52 62.62C33.952 62.508 34.304 62.364 34.576 62.188C34.848 61.996 35.064 61.772 35.224 61.516C35.384 61.26 35.488 60.98 35.536 60.676C35.6 60.372 35.632 60.052 35.632 59.716V59.692C35.424 59.692 35.24 59.692 35.08 59.692C34.92 59.676 34.8 59.668 34.72 59.668C34.368 59.668 34.024 59.604 33.688 59.476C33.4 59.38 33.184 59.228 33.04 59.02C32.88 58.844 32.8 58.628 32.8 58.372C32.8 58.276 32.8 58.188 32.8 58.108C32.816 58.012 32.832 57.916 32.848 57.82C32.896 57.692 33 57.532 33.16 57.34C33.256 57.26 33.408 57.196 33.616 57.148C33.712 57.116 33.808 57.092 33.904 57.076C34 57.044 34.112 57.02 34.24 57.004C34.336 56.988 34.44 56.98 34.552 56.98C34.664 56.98 34.776 56.98 34.888 56.98H37.072C37.248 56.964 37.448 56.988 37.672 57.052C37.912 57.1 38.096 57.18 38.224 57.292C38.272 57.356 38.32 57.42 38.368 57.484C38.416 57.548 38.456 57.62 38.488 57.7C38.552 57.876 38.592 58.052 38.608 58.228C38.624 58.324 38.632 58.428 38.632 58.54C38.648 58.636 38.656 58.724 38.656 58.804V59.788ZM53.017 58.516C53.097 58.74 53.153 58.996 53.185 59.284C53.233 59.556 53.257 59.836 53.257 60.124C53.257 60.412 53.233 60.7 53.185 60.988C53.153 61.26 53.105 61.5 53.041 61.708C52.785 62.604 52.273 63.356 51.505 63.964C50.737 64.556 49.857 64.988 48.865 65.26C47.889 65.532 46.873 65.628 45.817 65.548C44.777 65.468 43.849 65.204 43.033 64.756C42.521 64.468 42.081 64.116 41.713 63.7C41.345 63.284 41.033 62.82 40.777 62.308C40.681 62.132 40.617 61.932 40.585 61.708C40.569 61.468 40.593 61.244 40.657 61.036C40.721 60.812 40.825 60.62 40.969 60.46C41.113 60.284 41.313 60.164 41.569 60.1C41.729 60.068 41.905 60.052 42.097 60.052C42.305 60.052 42.505 60.084 42.697 60.148C42.889 60.196 43.065 60.284 43.225 60.412C43.385 60.524 43.513 60.684 43.609 60.892C43.785 61.228 44.033 61.54 44.353 61.828C44.689 62.1 45.041 62.324 45.409 62.5C45.937 62.676 46.465 62.748 46.993 62.716C47.537 62.684 48.025 62.564 48.457 62.356C48.905 62.148 49.265 61.868 49.537 61.516C49.809 61.148 49.945 60.732 49.945 60.268C49.945 59.884 49.889 59.572 49.777 59.332C49.665 59.076 49.505 58.868 49.297 58.708C49.105 58.532 48.865 58.388 48.577 58.276C48.305 58.164 48.001 58.068 47.665 57.988C47.281 57.908 46.889 57.852 46.489 57.82C46.105 57.788 45.713 57.748 45.313 57.7C44.913 57.652 44.521 57.588 44.137 57.508C43.753 57.428 43.377 57.308 43.009 57.148C42.273 56.844 41.713 56.38 41.329 55.756C40.945 55.132 40.713 54.46 40.633 53.74C40.569 53.02 40.657 52.308 40.897 51.604C41.137 50.884 41.521 50.268 42.049 49.756C42.561 49.292 43.169 48.964 43.873 48.772C44.593 48.564 45.385 48.444 46.249 48.412C46.729 48.396 47.209 48.412 47.689 48.46C48.185 48.508 48.657 48.588 49.105 48.7C49.569 48.812 49.993 48.956 50.377 49.132C50.777 49.308 51.121 49.516 51.409 49.756C51.617 49.916 51.825 50.132 52.033 50.404C52.241 50.66 52.401 50.94 52.513 51.244C52.625 51.532 52.657 51.812 52.609 52.084C52.577 52.356 52.409 52.588 52.105 52.78C51.849 52.94 51.601 53.012 51.361 52.996C51.137 52.964 50.921 52.892 50.713 52.78C50.505 52.652 50.305 52.508 50.113 52.348C49.921 52.188 49.745 52.044 49.585 51.916C49.153 51.596 48.617 51.38 47.977 51.268C47.337 51.156 46.737 51.132 46.177 51.196C45.825 51.244 45.497 51.324 45.193 51.436C44.889 51.548 44.625 51.7 44.401 51.892C44.193 52.084 44.025 52.324 43.897 52.612C43.785 52.884 43.745 53.196 43.777 53.548C43.793 53.804 43.865 54.02 43.993 54.196C44.137 54.372 44.305 54.516 44.497 54.628C44.705 54.74 44.929 54.828 45.169 54.892C45.409 54.956 45.649 55.004 45.889 55.036C46.609 55.132 47.329 55.204 48.049 55.252C48.769 55.3 49.473 55.46 50.161 55.732C50.865 56.004 51.465 56.372 51.961 56.836C52.457 57.3 52.809 57.86 53.017 58.516ZM55.9306 62.956L55.9546 61.06L55.9786 57.532C55.9946 57.02 56.0026 56.492 56.0026 55.948C56.0026 55.404 56.0026 54.844 56.0026 54.268C56.0026 53.692 56.0026 53.18 56.0026 52.732C56.0026 52.284 56.0186 51.78 56.0506 51.22V51.124C56.0666 50.964 56.0746 50.804 56.0746 50.644C56.0906 50.468 56.0986 50.292 56.0986 50.116C56.1146 49.828 56.2026 49.516 56.3626 49.18C56.4746 48.956 56.6426 48.764 56.8666 48.604C57.1226 48.476 57.3706 48.412 57.6106 48.412C57.7386 48.412 57.8506 48.42 57.9466 48.436C58.0586 48.436 58.1626 48.444 58.2586 48.46C58.4666 48.492 58.6506 48.588 58.8106 48.748C58.9066 48.828 58.9946 48.956 59.0746 49.132C59.1066 49.228 59.1306 49.324 59.1466 49.42C59.1786 49.5 59.2026 49.588 59.2186 49.684C59.2346 49.796 59.2426 49.9 59.2426 49.996C59.2586 50.092 59.2666 50.188 59.2666 50.284C59.2666 50.396 59.2586 50.5 59.2426 50.596C59.2426 50.676 59.2426 50.764 59.2426 50.86V51.268L59.0986 63.724V63.964C59.0986 64.012 59.0906 64.076 59.0746 64.156C59.0746 64.22 59.0666 64.3 59.0506 64.396C59.0186 64.476 58.9866 64.564 58.9546 64.66C58.9386 64.74 58.9146 64.828 58.8826 64.924C58.8346 65.004 58.7786 65.084 58.7146 65.164C58.6666 65.228 58.6026 65.292 58.5226 65.356C58.3946 65.484 58.1866 65.572 57.8986 65.62C57.4666 65.716 57.0586 65.676 56.6746 65.5C56.4826 65.372 56.3466 65.212 56.2666 65.02C56.2186 64.972 56.1946 64.924 56.1946 64.876C56.1786 64.844 56.1626 64.82 56.1466 64.804C56.1306 64.788 56.1146 64.764 56.0986 64.732C56.0666 64.652 56.0426 64.572 56.0266 64.492C56.0106 64.396 56.0026 64.3 56.0026 64.204C55.9866 64.124 55.9706 64.044 55.9546 63.964C55.9546 63.884 55.9466 63.804 55.9306 63.724C55.9146 63.596 55.9146 63.46 55.9306 63.316V62.956Z" fill="#AE9158"/>
</svg>
